<?xml version="1.0" encoding="UTF-8"?>
<svg version="1.1" xmlns="http://www.w3.org/2000/svg" width="500" height="500">
<path d="M0 0 C1.29880852 0.00067978 1.29880852 0.00067978 2.62385559 0.00137329 C3.98504517 -0.00366463 3.98504517 -0.00366463 5.37373352 -0.00880432 C8.39486539 -0.01835494 11.41594196 -0.02026026 14.43708801 -0.02133179 C16.53683495 -0.02454433 18.63658166 -0.0279084 20.73632812 -0.03141785 C25.15245583 -0.03742133 29.56856394 -0.03925678 33.98469543 -0.03866577 C39.61881842 -0.03856472 45.25281375 -0.05215227 50.88690662 -0.06943798 C55.23233607 -0.08061594 59.57773538 -0.08258311 63.92317772 -0.08205605 C65.9982058 -0.08322993 68.07323481 -0.08761819 70.14824867 -0.09538841 C80.61040739 -0.13086 90.71395209 -0.14482726 100.98005676 2.14663696 C101.97024307 2.33808792 102.96042938 2.52953888 103.98062134 2.72679138 C119.36635498 5.77572605 137.37579534 15.63083444 147.98005676 27.14663696 C147.98005676 27.80663696 147.98005676 28.46663696 147.98005676 29.14663696 C148.64005676 29.14663696 149.30005676 29.14663696 149.98005676 29.14663696 C149.98005676 29.80663696 149.98005676 30.46663696 149.98005676 31.14663696 C150.64005676 31.14663696 151.30005676 31.14663696 151.98005676 31.14663696 C151.98005676 31.80663696 151.98005676 32.46663696 151.98005676 33.14663696 C152.64005676 33.14663696 153.30005676 33.14663696 153.98005676 33.14663696 C155.49103949 35.07465092 156.87087229 36.99003756 158.23005676 39.02163696 C158.63264709 39.61734497 159.03523743 40.21305298 159.45002747 40.82681274 C160.63614376 42.59401459 161.80935858 44.36919648 162.98005676 46.14663696 C163.5459552 46.99226196 164.11185364 47.83788696 164.69490051 48.70913696 C173.78273283 62.97968533 178.26726052 79.32910061 178.98005676 96.14663696 C179.02130676 97.08894165 179.06255676 98.03124634 179.10505676 99.00210571 C179.76246982 129.44854791 168.07198974 155.23331013 148.35505676 177.88882446 C146.98005676 179.14663696 146.98005676 179.14663696 144.98005676 179.14663696 C144.98005676 179.80663696 144.98005676 180.46663696 144.98005676 181.14663696 C143.0520594 182.65760668 141.13655095 184.03733456 139.10505676 185.39663696 C138.51007385 185.79922729 137.91509094 186.20181763 137.30207825 186.61660767 C135.53483448 187.80386704 133.75945859 188.97769813 131.98005676 190.14663696 C131.1228302 190.7125354 130.26560364 191.27843384 129.38240051 191.86148071 C110.41473228 203.79939544 92.35925755 205.6010864 70.51911926 205.43960571 C68.27468654 205.43399954 66.03025011 205.42973428 63.78581238 205.42674255 C57.92343225 205.41537421 52.06128067 205.38597721 46.19898987 205.35263062 C40.19896027 205.32175568 34.19889317 205.30820023 28.19880676 205.29312134 C16.45912388 205.26109883 4.71960944 205.21000106 -7.01994324 205.14663696 C-7.0432689 178.56561278 -7.06092077 151.98459012 -7.07175541 125.40355778 C-7.07691908 113.06246156 -7.08396311 100.72137169 -7.09538269 88.38027954 C-7.10532738 77.62800242 -7.11179615 66.8757299 -7.11403173 56.12344831 C-7.11533921 50.42640485 -7.11842737 44.72937454 -7.12567329 39.03233528 C-7.13243012 33.67676496 -7.13456089 28.32121329 -7.13305092 22.96563911 C-7.1333274 20.99390054 -7.13533452 19.02216139 -7.13914871 17.05042648 C-7.14408069 14.37076775 -7.14294337 11.69118058 -7.14019775 9.01152039 C-7.1431106 8.22067977 -7.14602344 7.42983916 -7.14902455 6.61503369 C-7.13037909 -0.05824441 -6.62063084 0.03604506 0 0 Z M36.98005676 39.14663696 C36.98005676 81.05663696 36.98005676 122.96663696 36.98005676 166.14663696 C73.74642193 168.54363493 73.74642193 168.54363493 105.98005676 156.14663696 C106.79990051 155.59491821 107.61974426 155.04319946 108.46443176 154.47476196 C121.53431809 144.97677004 129.09724102 130.57918426 132.98005676 115.14663696 C133.3745318 112.4216986 133.58059256 109.70758264 133.73005676 106.95913696 C133.79144836 105.84429932 133.79144836 105.84429932 133.8540802 104.7069397 C134.12196933 98.30590834 133.49167805 92.38320622 131.98005676 86.14663696 C131.79572083 85.3100354 131.61138489 84.47343384 131.42146301 83.61148071 C127.23348527 67.19772945 115.1279339 53.89416588 100.98005676 45.14663696 C79.18104398 34.99798546 65.75344995 39.14663696 36.98005676 39.14663696 Z " fill="#FD2420" transform="translate(268.0199432373047,128.85336303710938)"/>
<path d="M0 0 C6.21791873 5.3579938 6.21791873 5.3579938 8 8 C7.69414365 12.24174466 5.08881147 14.28787285 2 17 C1.34 17 0.68 17 0 17 C-0.3861145 17.86854614 -0.3861145 17.86854614 -0.7800293 18.75463867 C-3.02550579 22.88744782 -6.5322006 25.98546437 -9.8125 29.3125 C-10.52470703 30.06595703 -11.23691406 30.81941406 -11.97070312 31.59570312 C-12.66744141 32.30275391 -13.36417969 33.00980469 -14.08203125 33.73828125 C-14.71343018 34.38837158 -15.3448291 35.03846191 -15.99536133 35.70825195 C-18 37 -18 37 -20.62915039 36.79248047 C-23.33972005 35.88644514 -24.6118084 34.82125726 -26.625 32.8125 C-31.26731883 28.53875847 -36.37475862 25.7913452 -42 23 C-43.11375 22.4225 -44.2275 21.845 -45.375 21.25 C-60.99412836 15.86409367 -78.06718856 16.88840918 -93.09375 23.4921875 C-97.01864475 25.52849042 -100.52133617 27.97492988 -104.0390625 30.64453125 C-106 32 -106 32 -108 32 C-108 32.66 -108 33.32 -108 34 C-108.66 34 -109.32 34 -110 34 C-110 34.66 -110 35.32 -110 36 C-110.66 36 -111.32 36 -112 36 C-112.2475 36.556875 -112.495 37.11375 -112.75 37.6875 C-114 40 -114 40 -115.75 42.125 C-122.27005896 50.45618644 -125.55359448 58.72509683 -128 69 C-128.19335938 69.79019531 -128.38671875 70.58039063 -128.5859375 71.39453125 C-131.06905897 87.019456 -128.45858478 103.51696976 -120 117 C-118.2165963 119.42709506 -116.38323059 121.77791292 -114.453125 124.08984375 C-113 126 -113 126 -112 129 C-110.68442639 129.70106226 -109.34726112 130.36194852 -108 131 C-106.48026887 132.24717066 -104.98198472 133.52070332 -103.5 134.8125 C-92.70432029 143.58598012 -80.22411691 146.35699973 -66.625 146.3125 C-65.64789063 146.32861328 -64.67078125 146.34472656 -63.6640625 146.36132812 C-48.59468868 146.37134766 -35.22643847 139.84398957 -24 130 C-23.52691406 129.41605469 -23.05382812 128.83210937 -22.56640625 128.23046875 C-21 127 -21 127 -18.76293945 127.09985352 C-15.10048636 128.2930553 -12.88527056 130.50351868 -10.2265625 133.171875 C-9.69856049 133.69130676 -9.17055847 134.21073853 -8.6265564 134.74591064 C-7.51728223 135.84372992 -6.41317 136.94678661 -5.31396484 138.0546875 C-3.62678825 139.74820503 -1.91465734 141.41329946 -0.19921875 143.078125 C0.8766189 144.14941835 1.95089384 145.22228383 3.0234375 146.296875 C3.53788422 146.79290222 4.05233093 147.28892944 4.58236694 147.79998779 C5.98974609 149.24511719 5.98974609 149.24511719 8 152 C7.82189005 157.48696719 4.56887756 159.99571202 0.77734375 163.6015625 C-21.86295645 183.15310163 -49.47543988 190.81628666 -79 189 C-84.43731877 188.43114059 -89.68920347 187.29682241 -95 186 C-96.17820312 185.73316406 -97.35640625 185.46632813 -98.5703125 185.19140625 C-114.19931556 181.25793233 -130.36146367 172.12126805 -142 161 C-142 160.34 -142 159.68 -142 159 C-142.66 159 -143.32 159 -144 159 C-144 158.34 -144 157.68 -144 157 C-144.66 157 -145.32 157 -146 157 C-146 156.34 -146 155.68 -146 155 C-146.66 155 -147.32 155 -148 155 C-149.67530349 153.07761938 -151.22178348 151.15989643 -152.75 149.125 C-153.19956055 148.53001709 -153.64912109 147.93503418 -154.11230469 147.32202148 C-170.55756696 125.27956862 -179.30950334 97.08366495 -175.4296875 69.55859375 C-174.20784998 61.87979542 -172.58496396 54.3417698 -170 47 C-169.68675781 46.03320312 -169.37351562 45.06640625 -169.05078125 44.0703125 C-163.67275469 28.63443275 -154.42267618 16.4574484 -143 5 C-142.43152344 4.38769531 -141.86304688 3.77539062 -141.27734375 3.14453125 C-140 2 -140 2 -138 2 C-138 1.34 -138 0.68 -138 0 C-127.10214753 -9.81512847 -112.09828366 -17.31247006 -98 -21 C-96.99324219 -21.29648438 -95.98648438 -21.59296875 -94.94921875 -21.8984375 C-61.44609056 -30.32252279 -26.3853291 -21.59796329 0 0 Z " fill="#F5F6F6" transform="translate(222,149)"/>
<path d="M0 0 C1.29880852 0.00067978 1.29880852 0.00067978 2.62385559 0.00137329 C3.98504517 -0.00366463 3.98504517 -0.00366463 5.37373352 -0.00880432 C8.39486539 -0.01835494 11.41594196 -0.02026026 14.43708801 -0.02133179 C16.53683495 -0.02454433 18.63658166 -0.0279084 20.73632812 -0.03141785 C25.15245583 -0.03742133 29.56856394 -0.03925678 33.98469543 -0.03866577 C39.61881842 -0.03856472 45.25281375 -0.05215227 50.88690662 -0.06943798 C55.23233607 -0.08061594 59.57773538 -0.08258311 63.92317772 -0.08205605 C65.9982058 -0.08322993 68.07323481 -0.08761819 70.14824867 -0.09538841 C90.83100155 -0.16551257 90.83100155 -0.16551257 100.98005676 2.14663696 C102.16341614 2.3928479 103.34677551 2.63905884 104.56599426 2.89273071 C109.7252468 4.17170508 114.37562541 5.46071868 118.98005676 8.14663696 C118.98005676 8.47663696 118.98005676 8.80663696 118.98005676 9.14663696 C116.34005676 9.14663696 113.70005676 9.14663696 110.98005676 9.14663696 C110.48505676 8.15663696 110.48505676 8.15663696 109.98005676 7.14663696 C107.39400345 6.67831047 107.39400345 6.67831047 104.41755676 6.52163696 C103.4056427 6.44687134 102.39372864 6.37210571 101.35115051 6.29507446 C100.56868958 6.24609009 99.78622864 6.19710571 98.98005676 6.14663696 C98.98005676 5.48663696 98.98005676 4.82663696 98.98005676 4.14663696 C97.33005676 4.14663696 95.68005676 4.14663696 93.98005676 4.14663696 C93.98005676 3.48663696 93.98005676 2.82663696 93.98005676 2.14663696 C61.31005676 2.14663696 28.64005676 2.14663696 -5.01994324 2.14663696 C-5.01994324 68.80663696 -5.01994324 135.46663696 -5.01994324 204.14663696 C29.63005676 203.81663696 64.28005676 203.48663696 99.98005676 203.14663696 C99.98005676 203.47663696 99.98005676 203.80663696 99.98005676 204.14663696 C94.62752608 205.25611193 89.46488114 205.28134576 84.02742004 205.26016235 C82.54843987 205.26038139 82.54843987 205.26038139 81.0395813 205.26060486 C77.79315461 205.25991035 74.54678589 205.25213958 71.30036926 205.24429321 C69.04450003 205.24242739 66.7886304 205.24100426 64.53276062 205.24000549 C58.60459773 205.23619324 52.67645946 205.22637397 46.74830627 205.21530151 C40.69535149 205.20505963 34.64239272 205.20050192 28.58943176 205.19546509 C16.7196293 205.18475054 4.84984508 205.16768963 -7.01994324 205.14663696 C-7.0432689 178.56561278 -7.06092077 151.98459012 -7.07175541 125.40355778 C-7.07691908 113.06246156 -7.08396311 100.72137169 -7.09538269 88.38027954 C-7.10532738 77.62800242 -7.11179615 66.8757299 -7.11403173 56.12344831 C-7.11533921 50.42640485 -7.11842737 44.72937454 -7.12567329 39.03233528 C-7.13243012 33.67676496 -7.13456089 28.32121329 -7.13305092 22.96563911 C-7.1333274 20.99390054 -7.13533452 19.02216139 -7.13914871 17.05042648 C-7.14408069 14.37076775 -7.14294337 11.69118058 -7.14019775 9.01152039 C-7.1431106 8.22067977 -7.14602344 7.42983916 -7.14902455 6.61503369 C-7.13037909 -0.05824441 -6.62063084 0.03604506 0 0 Z " fill="#AC1118" transform="translate(268.0199432373047,128.85336303710938)"/>
<path d="M0 0 C1.72974441 0.00015918 3.45949355 0.0058569 5.18920898 0.01586914 C6.09783188 0.01728409 7.00645477 0.01869904 7.94261169 0.02015686 C10.85687494 0.02577346 13.77106254 0.03832874 16.68530273 0.05102539 C18.65600475 0.05603825 20.62670797 0.06060153 22.59741211 0.06469727 C27.43923832 0.07574828 32.28100768 0.09302401 37.12280273 0.11352539 C37.12280273 0.44352539 37.12280273 0.77352539 37.12280273 1.11352539 C23.92280273 1.11352539 10.72280273 1.11352539 -2.87719727 1.11352539 C-2.87719727 43.02352539 -2.87719727 84.93352539 -2.87719727 128.11352539 C33.95283308 129.5601158 33.95283308 129.5601158 66.12280273 117.11352539 C66.76475586 116.69329102 67.40670898 116.27305664 68.06811523 115.84008789 C69.43007766 114.94689393 70.7786062 114.03323881 72.12280273 113.11352539 C70.62384603 116.92905156 68.32411714 118.65097585 65.12280273 121.11352539 C64.79280273 121.77352539 64.46280273 122.43352539 64.12280273 123.11352539 C63.46280273 123.11352539 62.80280273 123.11352539 62.12280273 123.11352539 C62.12280273 123.77352539 62.12280273 124.43352539 62.12280273 125.11352539 C59.87303921 125.76018202 57.62298306 126.40582062 55.37280273 127.05102539 C53.49334961 127.59049805 53.49334961 127.59049805 51.57592773 128.14086914 C49.86663086 128.62233398 49.86663086 128.62233398 48.12280273 129.11352539 C47.17584785 129.3871138 47.17584785 129.3871138 46.20976257 129.66622925 C43.84614441 130.17282131 41.69568071 130.24063258 39.27832031 130.24291992 C38.32085403 130.24607208 37.36338776 130.24922424 36.37690735 130.25247192 C34.83766853 130.24943558 34.83766853 130.24943558 33.26733398 130.24633789 C31.68126595 130.24777298 31.68126595 130.24777298 30.06315613 130.24923706 C27.8314915 130.24991696 25.59982488 130.24807593 23.36816406 130.24389648 C19.938025 130.23852965 16.50801593 130.24385609 13.07788086 130.25024414 C10.91186494 130.24958364 8.74584911 130.24830306 6.57983398 130.24633789 C5.54760208 130.24836212 4.51537018 130.25038635 3.45185852 130.25247192 C2.50384872 130.24931976 1.55583893 130.2461676 0.57910156 130.24291992 C-0.25932785 130.24212433 -1.09775726 130.24132874 -1.96159363 130.24050903 C-3.87719727 130.11352539 -3.87719727 130.11352539 -4.87719727 129.11352539 C-4.97548526 127.45826716 -5.00351703 125.79879867 -5.00418091 124.140625 C-5.00700073 123.06368378 -5.00982056 121.98674255 -5.01272583 120.87716675 C-5.0107016 119.68543854 -5.00867737 118.49371033 -5.0065918 117.26586914 C-5.00834412 116.01887238 -5.01009644 114.77187561 -5.01190186 113.48709106 C-5.01556016 110.05741935 -5.01468687 106.6278076 -5.01152277 103.19813919 C-5.00899888 99.61646695 -5.01133679 96.03479734 -5.01290894 92.453125 C-5.01473055 86.43725115 -5.01232455 80.42138957 -5.00756836 74.40551758 C-5.00212575 67.44080212 -5.00388842 60.47611593 -5.00939476 53.51140118 C-5.01392614 47.5419855 -5.01457632 41.57257865 -5.0119561 35.60316181 C-5.01039345 32.03335909 -5.0101992 28.46357015 -5.01349258 24.89376831 C-5.01690551 20.91622776 -5.01218116 16.93872025 -5.0065918 12.96118164 C-5.00962814 11.17358932 -5.00962814 11.17358932 -5.01272583 9.34988403 C-5.00990601 8.27294281 -5.00708618 7.19600159 -5.00418091 6.08642578 C-5.00380388 5.14473038 -5.00342686 4.20303497 -5.00303841 3.23280334 C-4.77921632 -0.53656178 -3.97764566 0.11646655 0 0 Z " fill="#A00F13" transform="translate(307.877197265625,166.886474609375)"/>
<path d="M0 0 C1.6875 2.0625 1.6875 2.0625 1.6875 5.0625 C3.0075 5.7225 4.3275 6.3825 5.6875 7.0625 C1.20380794 7.0625 -2.40088365 5.0695745 -6.5 3.3515625 C-18.3174422 -0.90848981 -30.63061455 -0.17237638 -43 -0.0625 C-44.97330276 -0.05245115 -46.94661046 -0.04332867 -48.91992188 -0.03515625 C-53.71757165 -0.01329134 -58.51498036 0.02113384 -63.3125 0.0625 C-62.9825 -1.2575 -62.6525 -2.5775 -62.3125 -3.9375 C-56.89078153 -4.10749487 -51.46888574 -4.26774982 -46.04663086 -4.41967773 C-44.20899046 -4.47245676 -42.3714194 -4.52771971 -40.53393555 -4.58569336 C-6.73890595 -5.64611039 -6.73890595 -5.64611039 0 0 Z " fill="#EB1617" transform="translate(366.3125,167.9375)"/>
<path d="M0 0 C0 0.99 0 1.98 0 3 C-1.96185416 4.71140469 -3.96302383 6.37873325 -6 8 C-6.33 8.66 -6.66 9.32 -7 10 C-7.66 10 -8.32 10 -9 10 C-9 10.66 -9 11.32 -9 12 C-22.09438082 17.31201271 -35.47951499 16.45377994 -49.375 16.25 C-51.76821418 16.22989985 -54.16144471 16.21165532 -56.5546875 16.1953125 C-62.37015304 16.15160691 -68.18499863 16.08497492 -74 16 C-74 15.67 -74 15.34 -74 15 C-72.06519775 14.98598145 -72.06519775 14.98598145 -70.09130859 14.97167969 C-65.24152853 14.93138519 -60.39235688 14.86552249 -55.54296875 14.79248047 C-53.45613504 14.76449734 -51.36919979 14.74317186 -49.28222656 14.72900391 C-30.45464214 14.59361859 -14.80601068 12.83187592 0 0 Z " fill="#8D0812" transform="translate(379,280)"/>
<path d="M0 0 C0 0.33 0 0.66 0 1 C-1.03406982 1.03963867 -2.06813965 1.07927734 -3.13354492 1.12011719 C-6.98297833 1.27267316 -10.8309428 1.45003075 -14.67895508 1.63476562 C-16.34207075 1.71116374 -18.00550665 1.78090158 -19.66918945 1.84375 C-22.0657772 1.93545799 -24.46017796 2.05135447 -26.85546875 2.171875 C-27.5952446 2.19497742 -28.33502045 2.21807983 -29.09721375 2.24188232 C-34.01754408 2.52107309 -36.39967639 3.7111798 -40 7 C-42.45703125 7.171875 -42.45703125 7.171875 -44.8125 6.75 C-45.60269531 6.62109375 -46.39289063 6.4921875 -47.20703125 6.359375 C-48.09455078 6.18148437 -48.09455078 6.18148437 -49 6 C-49 6.66 -49 7.32 -49 8 C-49.66 8 -50.32 8 -51 8 C-51.33 8.66 -51.66 9.32 -52 10 C-52 9.34 -52 8.68 -52 8 C-53.32 7.67 -54.64 7.34 -56 7 C-37.15982558 0.08842764 -19.79889219 -0.38883916 0 0 Z " fill="#ABA9AC" transform="translate(168,125)"/>
<path d="M0 0 C1.32 0.33 2.64 0.66 4 1 C3.01 2.485 3.01 2.485 2 4 C1.34 4 0.68 4 0 4 C0 4.66 0 5.32 0 6 C-2.03159135 7.59433816 -4.05195863 9.05787606 -6.1875 10.5 C-7.0547168 11.10521484 -7.0547168 11.10521484 -7.93945312 11.72265625 C-11.17840045 13.9405117 -14.28828323 15.71383072 -18 17 C-17.2575 16.1028125 -17.2575 16.1028125 -16.5 15.1875 C-14.71723582 13.02970006 -14.71723582 13.02970006 -15 10 C-13 7.8125 -13 7.8125 -11 6 C-10.34 6.33 -9.68 6.66 -9 7 C-6.91666667 6.83333333 -6.91666667 6.83333333 -5 6 C-4.67 5.01 -4.34 4.02 -4 3 C-3.01 3 -2.02 3 -1 3 C-0.67 2.01 -0.34 1.02 0 0 Z " fill="#D01214" transform="translate(413,304)"/>
<path d="M0 0 C0.33 0 0.66 0 1 0 C2.72835493 17.40700319 2.33553597 34.2108468 -3 51 C-3.33 51 -3.66 51 -4 51 C-4.05429959 49.25034642 -4.09292823 47.50020213 -4.125 45.75 C-4.15980469 44.28820312 -4.15980469 44.28820312 -4.1953125 42.796875 C-3.9914347 39.87734485 -3.30015467 38.56178624 -2 36 C-1.19795881 31.31431545 -0.8313026 26.72044078 -0.68359375 21.97265625 C-0.64169922 20.68681641 -0.59980469 19.40097656 -0.55664062 18.07617188 C-0.516843 16.73828375 -0.47713049 15.40039309 -0.4375 14.0625 C-0.39423346 12.69725438 -0.35061679 11.33201982 -0.30664062 9.96679688 C-0.20098847 6.64462348 -0.09888605 3.32238054 0 0 Z " fill="#970A12" transform="translate(445,213)"/>
<path d="M0 0 C3.10429856 0.49668777 5.11774653 0.29603768 8.125 -0.5 C5.06034907 2.82803766 1.47022963 4.36136096 -2.625 6.125 C-3.3159375 6.43695313 -4.006875 6.74890625 -4.71875 7.0703125 C-9.14133475 8.99895848 -13.07073244 10.03466518 -17.875 10.5 C-16.60353369 7.95706738 -15.56130403 7.76022999 -13 6.625 C-9.6458046 5.02861823 -7.93459464 3.64359182 -5.875 0.5 C-2.875 -0.5 -2.875 -0.5 0 0 Z " fill="#BA1110" transform="translate(386.875,321.5)"/>
<path d="M0 0 C3.94072902 3.23895536 3.99219213 6.83119321 4.66015625 11.68359375 C5.52869564 20.73364159 5.15125203 29.92138777 5 39 C4.34 39 3.68 39 3 39 C3 40.32 3 41.64 3 43 C2.34 43 1.68 43 1 43 C1.23396484 41.43765625 1.23396484 41.43765625 1.47265625 39.84375 C3.36806787 26.2775168 3.31991365 13.40858328 0 0 Z " fill="#89070E" transform="translate(398,208)"/>
<path d="M0 0 C10.44642076 -0.73308216 20.80130873 2.06859716 30 7 C30 7.33 30 7.66 30 8 C27.36 8 24.72 8 22 8 C21.67 7.34 21.34 6.68 21 6 C18.41394668 5.5316735 18.41394668 5.5316735 15.4375 5.375 C14.42558594 5.30023438 13.41367187 5.22546875 12.37109375 5.1484375 C11.19740234 5.07496094 11.19740234 5.07496094 10 5 C10 4.34 10 3.68 10 3 C8.35 3 6.7 3 5 3 C5 2.34 5 1.68 5 1 C3.35 1 1.7 1 0 1 C0 0.67 0 0.34 0 0 Z " fill="#AD0C15" transform="translate(357,130)"/>
<path d="M0 0 C0.33 0 0.66 0 1 0 C1.13873856 12.03942433 0.73868295 23.98321123 0 36 C-0.33 36 -0.66 36 -1 36 C-3.31150849 24.01714001 -2.08481479 11.91322735 0 0 Z " fill="#888888" transform="translate(48,209)"/>
<path d="M0 0 C1.06675441 3.30003164 0.94594883 5.72971429 0.3125 9.125 C0.16425781 9.99382812 0.01601563 10.86265625 -0.13671875 11.7578125 C-1.230149 14.59776255 -2.30516503 14.79875207 -5 16 C-5.33 16.99 -5.66 17.98 -6 19 C-8.375 21.6875 -8.375 21.6875 -11 24 C-11.99 24 -12.98 24 -14 24 C-13.48050781 23.40574219 -12.96101563 22.81148438 -12.42578125 22.19921875 C-6.66013469 15.34651868 -2.82939736 8.48819207 0 0 Z " fill="#9C0A15" transform="translate(398,251)"/>
<path d="M0 0 C3.83132316 1.56090944 6.1075134 4.1075134 9 7 C9.99 7.33 10.98 7.66 12 8 C12.33 9.65 12.66 11.3 13 13 C13.99 13.33 14.98 13.66 16 14 C16.33 16.97 16.66 19.94 17 23 C14.81149203 20.2017904 13.03645985 17.3521398 11.3125 14.25 C8.59987395 9.63785244 5.44392333 6.13039306 1.5390625 2.49609375 C1.03117187 2.00238281 0.52328125 1.50867188 0 1 C0 0.67 0 0.34 0 0 Z " fill="#9E0B12" transform="translate(379,181)"/>
<path d="M0 0 C0.33 0.66 0.66 1.32 1 2 C0.67 2.99 0.34 3.98 0 5 C-2.0625 5.6875 -2.0625 5.6875 -4 6 C-4 7.65 -4 9.3 -4 11 C-4.556875 11.103125 -5.11375 11.20625 -5.6875 11.3125 C-8.15132842 11.93498888 -8.15132842 11.93498888 -10.625 13.625 C-11.40875 14.07875 -12.1925 14.5325 -13 15 C-13.66 14.67 -14.32 14.34 -15 14 C-13.6696875 12.948125 -13.6696875 12.948125 -12.3125 11.875 C-10.0770941 10.02355793 -8.19096557 8.13788545 -6.375 5.875 C-4.35863021 3.4341313 -2.6101446 1.7400964 0 0 Z " fill="#E7151F" transform="translate(388,273)"/>
<path d="M0 0 C0.99 0.66 1.98 1.32 3 2 C2.52794881 6.24846075 0.11122478 8.26819288 -3 11 C-3.66 11 -4.32 11 -5 11 C-5.28875 11.639375 -5.5775 12.27875 -5.875 12.9375 C-7 15 -7 15 -9 16 C-8.39169139 9.55192878 -8.39169139 9.55192878 -6.625 7.0625 C-5 6 -5 6 -2 6 C-1.01 5.67 -0.02 5.34 1 5 C0.67 3.35 0.34 1.7 0 0 Z " fill="#B9B5B7" transform="translate(227,155)"/>
<path d="M0 0 C1.9947459 2.99211885 2.28897443 3.96465988 2.5625 7.375 C2.76637546 9.79654123 3.00739639 12.03022659 3.5859375 14.39453125 C4.09440599 17.59404521 3.65606697 20.13517094 3.0625 23.3125 C2.86785156 24.38113281 2.67320312 25.44976562 2.47265625 26.55078125 C2.31667969 27.35902344 2.16070312 28.16726562 2 29 C1.67 29 1.34 29 1 29 C0.67 19.43 0.34 9.86 0 0 Z M-1 29 C-0.01 29.495 -0.01 29.495 1 30 C0.01 30.495 0.01 30.495 -1 31 C-1 30.34 -1 29.68 -1 29 Z " fill="#EC181E" transform="translate(402,218)"/>
<path d="M0 0 C2.10388569 -0.05402274 4.20816714 -0.09280256 6.3125 -0.125 C8.07013672 -0.15980469 8.07013672 -0.15980469 9.86328125 -0.1953125 C13 0 13 0 16 2 C16 2.99 16 3.98 16 5 C17.32 5.66 18.64 6.32 20 7 C16.35958806 7 13.94844177 5.95477963 10.5625 4.625 C9.42941406 4.18414062 8.29632813 3.74328125 7.12890625 3.2890625 C4.68374112 2.2816911 2.3381574 1.22939971 0 0 Z " fill="#B40E15" transform="translate(352,168)"/>
<path d="M0 0 C-0.66 1.32 -1.32 2.64 -2 4 C-5.3 3.67 -8.6 3.34 -12 3 C-12 3.66 -12 4.32 -12 5 C-12.66 5 -13.32 5 -14 5 C-14.33 5.66 -14.66 6.32 -15 7 C-15 6.34 -15 5.68 -15 5 C-16.32 4.67 -17.64 4.34 -19 4 C-6.51480638 -0.59225513 -6.51480638 -0.59225513 0 0 Z " fill="#CFCFD0" transform="translate(131,128)"/>
<path d="M0 0 C0.66 0 1.32 0 2 0 C0.57161648 4.06312203 -1.39647042 7.21901829 -3.9375 10.6875 C-4.62714844 11.64011719 -5.31679688 12.59273438 -6.02734375 13.57421875 C-8 16 -8 16 -11 18 C-9.9789841 15.80088884 -8.99617852 13.99541423 -7.4375 12.125 C-5.63615871 9.46214766 -5.35927759 7.16164275 -5 4 C-4.01 4 -3.02 4 -2 4 C-2 3.34 -2 2.68 -2 2 C-1.34 2 -0.68 2 0 2 C0 1.34 0 0.68 0 0 Z " fill="#A60C10" transform="translate(430,284)"/>
<path d="M0 0 C1.32 0.33 2.64 0.66 4 1 C3.01 2.485 3.01 2.485 2 4 C1.34 4 0.68 4 0 4 C0 4.66 0 5.32 0 6 C-2.31 7.32 -4.62 8.64 -7 10 C-7 9.34 -7 8.68 -7 8 C-6.34 8 -5.68 8 -5 8 C-4.67 6.35 -4.34 4.7 -4 3 C-3.01 3 -2.02 3 -1 3 C-0.67 2.01 -0.34 1.02 0 0 Z " fill="#B81113" transform="translate(413,304)"/>
<path d="M0 0 C2.05710856 3.08566284 2.78346093 5.36985312 3.6875 8.9375 C3.95949219 9.97777344 4.23148437 11.01804688 4.51171875 12.08984375 C4.97828785 14.8705956 4.93894816 16.38480882 4 19 C3.67 19 3.34 19 3 19 C2.80083984 18.04287109 2.80083984 18.04287109 2.59765625 17.06640625 C2.42105469 16.24011719 2.24445313 15.41382813 2.0625 14.5625 C1.88847656 13.73878906 1.71445312 12.91507813 1.53515625 12.06640625 C1.19247006 10.02338796 1.19247006 10.02338796 0 9 C-0.07179964 7.48071962 -0.08392007 5.95832518 -0.0625 4.4375 C-0.05347656 3.61121094 -0.04445313 2.78492188 -0.03515625 1.93359375 C-0.02355469 1.29550781 -0.01195312 0.65742188 0 0 Z " fill="#980B0F" transform="translate(440,194)"/>
<path d="M0 0 C0.99 0.33 1.98 0.66 3 1 C1.66666667 3.66666667 0.33333333 6.33333333 -1 9 C-1.66 9 -2.32 9 -3 9 C-3.36923077 3.46153846 -3.36923077 3.46153846 -1.5 1.125 C-1.005 0.75375 -0.51 0.3825 0 0 Z " fill="#E6151B" transform="translate(419,295)"/>
<path d="M0 0 C2.92188322 2.6296949 4.97298548 5.64494149 7 9 C7 9.99 7 10.98 7 12 C5 12 5 12 2.9375 10.5 C0.22771513 7.00350339 0.29179502 4.37692535 0 0 Z " fill="#AF0E14" transform="translate(428,172)"/>
<path d="M0 0 C-0.95421808 1.14926266 -1.91352045 2.29430541 -2.875 3.4375 C-3.40867188 4.07558594 -3.94234375 4.71367187 -4.4921875 5.37109375 C-6 7 -6 7 -8 8 C-8.36075949 3.55063291 -8.36075949 3.55063291 -6.8125 1.1875 C-4.44017475 -0.36678206 -2.77958655 -0.22537188 0 0 Z " fill="#BCBBBB" transform="translate(227,307)"/>
<path d="M0 0 C4.875 2.625 4.875 2.625 6 6 C6.66 6 7.32 6 8 6 C8 6.66 8 7.32 8 8 C8.66 8 9.32 8 10 8 C10 8.66 10 9.32 10 10 C8.68 9.67 7.36 9.34 6 9 C6 8.34 6 7.68 6 7 C5.34 7 4.68 7 4 7 C0 2.52941176 0 2.52941176 0 0 Z " fill="#9B0A14" transform="translate(410,152)"/>
<path d="M0 0 C0.33 0 0.66 0 1 0 C1.19392201 5.52677733 0.7479503 9.75614911 -1 15 C-1.33 15 -1.66 15 -2 15 C-2.05429959 13.25034642 -2.09292823 11.50020213 -2.125 9.75 C-2.15980469 8.28820312 -2.15980469 8.28820312 -2.1953125 6.796875 C-1.99862781 3.9803502 -1.44568916 2.39050964 0 0 Z " fill="#B70F13" transform="translate(443,249)"/>
<path d="M0 0 C0.33 0 0.66 0 1 0 C1 3.3 1 6.6 1 10 C0.34 10 -0.32 10 -1 10 C-1 11.32 -1 12.64 -1 14 C-1.66 14 -2.32 14 -3 14 C-2.40380045 9.13103697 -1.43023178 4.67209049 0 0 Z " fill="#AC0E18" transform="translate(402,237)"/>
<path d="M0 0 C0.99 0.33 1.98 0.66 3 1 C2.53816182 5.15654359 2.11990898 7.21466571 -1 10 C-1.02689216 8.52093108 -1.04634621 7.04172517 -1.0625 5.5625 C-1.07410156 4.73878906 -1.08570313 3.91507813 -1.09765625 3.06640625 C-1 1 -1 1 0 0 Z " fill="#FA1919" transform="translate(441,245)"/>
<path d="M0 0 C1.10844919 3.32534757 0.84454356 5.62182575 0 9 C-0.66 9 -1.32 9 -2 9 C-2 10.98 -2 12.96 -2 15 C-2.66 15 -3.32 15 -4 15 C-2.07289294 4.44191344 -2.07289294 4.44191344 0 0 Z " fill="#9FA5A5" transform="translate(53,194)"/>
<path d="M0 0 C2.64 0.33 5.28 0.66 8 1 C8.66 2.65 9.32 4.3 10 6 C5.56909529 4.79157144 3.01887244 3.48331435 0 0 Z " fill="#BABABC" transform="translate(97,321)"/>
<path d="M0 0 C0.33 0 0.66 0 1 0 C1 4.29 1 8.58 1 13 C-1.44323037 10.55676963 -1.68989682 9.411135 -2 6 C-1.0625 2.6875 -1.0625 2.6875 0 0 Z " fill="#E31E26" transform="translate(444,212)"/>
<path d="M0 0 C0.66 0.33 1.32 0.66 2 1 C0.35 2.98 -1.3 4.96 -3 7 C-4.65 6.67 -6.3 6.34 -8 6 C-5.38485683 3.87961365 -2.80362384 1.86908256 0 0 Z " fill="#AAAAAB" transform="translate(190,285)"/>
<path d="M0 0 C0 3 0 3 -1.390625 4.640625 C-2.00421875 5.17171875 -2.6178125 5.7028125 -3.25 6.25 C-4.15492188 7.06210937 -4.15492188 7.06210937 -5.078125 7.890625 C-7 9 -7 9 -11 8 C-7.37 5.36 -3.74 2.72 0 0 Z " fill="#72050D" transform="translate(379,280)"/>
<path d="M0 0 C0.33 0.66 0.66 1.32 1 2 C0 5 0 5 -2.9375 6.625 C-3.948125 7.07875 -4.95875 7.5325 -6 8 C-6.99 8.495 -6.99 8.495 -8 9 C-6.4169423 4.7257442 -3.49431596 2.73468206 0 0 Z " fill="#C4111B" transform="translate(388,273)"/>
<path d="M0 0 C0.66 0 1.32 0 2 0 C2 0.66 2 1.32 2 2 C2.99 1.67 3.98 1.34 5 1 C6.32 1.66 7.64 2.32 9 3 C5.7 3.66 2.4 4.32 -1 5 C-0.67 3.35 -0.34 1.7 0 0 Z " fill="#BDBCBC" transform="translate(178,330)"/>
<path d="M0 0 C2.64 0.33 5.28 0.66 8 1 C8.33 2.65 8.66 4.3 9 6 C5.06326356 4.68775452 2.77280706 3.08089673 0 0 Z " fill="#A6A5A5" transform="translate(86,314)"/>
<path d="M0 0 C1 3 1 3 -0.1875 5.5625 C-2.02001957 8.02692286 -3.17445421 8.92824125 -6 10 C-4.6302836 6.00499382 -2.74277578 3.19990508 0 0 Z " fill="#A9A9AA" transform="translate(69,165)"/>
<path d="M0 0 C3.14737182 0.69941596 6.02588876 1.76078698 9 3 C9 3.33 9 3.66 9 4 C6.36 4 3.72 4 1 4 C0.67 2.68 0.34 1.36 0 0 Z " fill="#980B0F" transform="translate(378,134)"/>
<path d="M0 0 C0 3.63563409 -0.82542733 5.12645755 -3 8 C-4.32 8 -5.64 8 -7 8 C-5.61918777 3.8575633 -3.40174442 2.67796901 0 0 Z " fill="#EF1920" transform="translate(396,265)"/>
<path d="M0 0 C0 4.38968456 -2.12805101 5.76905739 -5 9 C-5.99 8.34 -6.98 7.68 -8 7 C-5.36 4.69 -2.72 2.38 0 0 Z " fill="#A4A4A6" transform="translate(200,277)"/>
<path d="M0 0 C1.32 0 2.64 0 4 0 C4.33 2.31 4.66 4.62 5 7 C4.34 6.67 3.68 6.34 3 6 C3 5.34 3 4.68 3 4 C2.34 4 1.68 4 1 4 C0.67 2.68 0.34 1.36 0 0 Z " fill="#CE111C" transform="translate(396,204)"/>
<path d="M0 0 C3.95820859 0.56545837 6.6659053 1.80902348 10 4 C7.45297384 5.27351308 6.5717055 4.80191925 3.875 4.0625 C3.15054687 3.86785156 2.42609375 3.67320312 1.6796875 3.47265625 C1.12539063 3.31667969 0.57109375 3.16070312 0 3 C0 2.01 0 1.02 0 0 Z " fill="#9C0A12" transform="translate(387,138)"/>
<path d="M0 0 C2.31 0.33 4.62 0.66 7 1 C7.33 2.32 7.66 3.64 8 5 C4.62496331 3.8141763 2.35277269 2.72426311 0 0 Z " fill="#A2A0A2" transform="translate(183,172)"/>
<path d="M0 0 C2.5 2.3125 2.5 2.3125 5 5 C5 5.99 5 6.98 5 8 C2.5 6.25 2.5 6.25 0 4 C0 2.68 0 1.36 0 0 Z " fill="#A00913" transform="translate(422,164)"/>
<path d="M0 0 C1.125 3.75 1.125 3.75 0 6 C-1.65 6 -3.3 6 -5 6 C-3.35 4.02 -1.7 2.04 0 0 Z " fill="#B1B1B2" transform="translate(76,157)"/>
<path d="M0 0 C3.465 1.485 3.465 1.485 7 3 C6.401875 3.12375 5.80375 3.2475 5.1875 3.375 C2.73768652 3.95475985 2.73768652 3.95475985 0 6 C0 4.02 0 2.04 0 0 Z " fill="#BFBEBF" transform="translate(203,137)"/>
<path d="M0 0 C1.32 0.33 2.64 0.66 4 1 C3.01 2.485 3.01 2.485 2 4 C1.34 4 0.68 4 0 4 C0 4.66 0 5.32 0 6 C-0.66 5.67 -1.32 5.34 -2 5 C-1.34 3.35 -0.68 1.7 0 0 Z " fill="#980C0F" transform="translate(413,304)"/>
<path d="M0 0 C0.66 0.33 1.32 0.66 2 1 C2 1.66 2 2.32 2 3 C1.34 3 0.68 3 0 3 C-0.33 3.99 -0.66 4.98 -1 6 C-2.32 5.67 -3.64 5.34 -5 5 C-3.35 3.35 -1.7 1.7 0 0 Z " fill="#BCBBBD" transform="translate(82,151)"/>
<path d="M0 0 C-0.66 0 -1.32 0 -2 0 C-2 0.66 -2 1.32 -2 2 C-2.66 2 -3.32 2 -4 2 C-4.33 2.66 -4.66 3.32 -5 4 C-5 3.34 -5 2.68 -5 2 C-6.32 1.67 -7.64 1.34 -9 1 C-5.57367167 -0.61798838 -3.61944899 -1.34053666 0 0 Z " fill="#9B9B9C" transform="translate(121,131)"/>
</svg>
