<?xml version="1.0" encoding="UTF-8"?>
<svg version="1.1" xmlns="http://www.w3.org/2000/svg" width="500" height="500">
<path d="M0 0 C3.3 0 6.6 0 10 0 C10.33 2.64 10.66 5.28 11 8 C12.91425781 7.94779297 12.91425781 7.94779297 14.8671875 7.89453125 C16.53644521 7.86639769 18.2057171 7.83909707 19.875 7.8125 C21.13763672 7.77479492 21.13763672 7.77479492 22.42578125 7.73632812 C23.23144531 7.72666016 24.03710938 7.71699219 24.8671875 7.70703125 C25.98262939 7.68346558 25.98262939 7.68346558 27.12060547 7.65942383 C28.05090576 7.82800903 28.05090576 7.82800903 29 8 C30.86619231 10.79928846 31.57248259 12.6309953 32.4375 15.8125 C33.58192544 19.80047231 34.98473498 23.35332996 37 27 C39.85691283 22.71463075 41.1364974 18.0113842 42.78125 13.15234375 C44 10 44 10 46 8 C48.1640625 7.8046875 48.1640625 7.8046875 50.625 7.875 C51.85089844 7.90207031 51.85089844 7.90207031 53.1015625 7.9296875 C54.04128906 7.96449219 54.04128906 7.96449219 55 8 C54.49535378 13.04646216 53.32402205 16.53072683 51 21 C50.5349097 22.33223983 50.09432567 23.67316303 49.671875 25.01953125 C47.91156557 30.39528734 45.81535066 35.59931742 43.625 40.8125 C43.25117188 41.73998047 42.87734375 42.66746094 42.4921875 43.62304688 C40.40689554 48.57561529 38.80488977 52.16252839 34 55 C29.70759265 56.18726161 26.32981584 55.92781768 22 55 C22.6043956 48.59340659 22.6043956 48.59340659 24.25 46.125 C26.45167104 44.70964005 28.42468508 44.34801553 31 44 C30.43153305 39.84346745 29.48090333 36.34434683 27.8125 32.5 C27.37164062 31.47390625 26.93078125 30.4478125 26.4765625 29.390625 C25.74566406 27.71226562 25.74566406 27.71226562 25 26 C24.44428972 24.70356293 23.88963158 23.40667445 23.3359375 22.109375 C21.89630695 18.73713027 20.44978809 15.36789261 19 12 C18.67 13.65 18.34 15.3 18 17 C15.69 17 13.38 17 11 17 C10.94616152 19.45862401 10.90640962 21.9160755 10.875 24.375 C10.85824219 25.07367188 10.84148437 25.77234375 10.82421875 26.4921875 C10.80655733 28.32897486 10.89696739 30.16601963 11 32 C11.66 32.66 12.32 33.32 13 34 C14.32 34 15.64 34 17 34 C18.4783226 36.95664519 18.06032783 39.74229737 18 43 C14.2685172 44.2438276 10.86908268 44.6643142 7 44 C3.47319621 42.03982364 1.29766886 39.89300657 0 36 C-0.0806622 34.51876453 -0.10761193 33.03417796 -0.09765625 31.55078125 C-0.09443359 30.70322266 -0.09121094 29.85566406 -0.08789062 28.98242188 C-0.07951172 28.10134766 -0.07113281 27.22027344 -0.0625 26.3125 C-0.05798828 25.41982422 -0.05347656 24.52714844 -0.04882812 23.60742188 C-0.03704983 21.40488013 -0.02060164 19.20247401 0 17 C-1.65 17 -3.3 17 -5 17 C-5 14.03 -5 11.06 -5 8 C-3.35 8 -1.7 8 0 8 C0 5.36 0 2.72 0 0 Z " fill="#ECEDEE" transform="translate(219,233)"/>
<path d="M0 0 C0.95777344 -0.00128906 1.91554688 -0.00257813 2.90234375 -0.00390625 C3.91167969 -0.00003906 4.92101562 0.00382813 5.9609375 0.0078125 C6.94707031 0.00394531 7.93320312 0.00007812 8.94921875 -0.00390625 C14.18633054 0.00308589 19.17652554 0.22232804 24.3359375 1.1328125 C24.3359375 1.7928125 24.3359375 2.4528125 24.3359375 3.1328125 C25.0578125 3.3390625 25.7796875 3.5453125 26.5234375 3.7578125 C31.79418694 6.33462334 34.46905273 10.73333113 36.3359375 16.1328125 C37.93386849 23.84613354 37.42949245 30.85877789 34.3359375 38.1328125 C30.56964649 42.91702 25.44205396 47.02291997 19.3359375 48.1328125 C17.3842048 48.21341247 15.42993332 48.24043493 13.4765625 48.23046875 C12.36152344 48.22724609 11.24648438 48.22402344 10.09765625 48.22070312 C8.93878906 48.21232422 7.77992188 48.20394531 6.5859375 48.1953125 C5.41160156 48.19080078 4.23726563 48.18628906 3.02734375 48.18164062 C0.13015678 48.16986344 -2.76692704 48.15341576 -5.6640625 48.1328125 C-5.68933195 41.4576091 -5.70689518 34.78241793 -5.71899414 28.10717773 C-5.72403575 25.83438659 -5.73086887 23.5615987 -5.73950195 21.28881836 C-5.75157511 18.02977699 -5.75729237 14.77077833 -5.76171875 11.51171875 C-5.76688004 10.48881241 -5.77204132 9.46590607 -5.77735901 8.41200256 C-5.77743454 7.47110275 -5.77751007 6.53020294 -5.77758789 5.56079102 C-5.7798085 4.72806168 -5.78202911 3.89533234 -5.78431702 3.03736877 C-5.54536742 -0.74704594 -3.24637175 0.0041997 0 0 Z M5.3359375 10.1328125 C5.3359375 19.3728125 5.3359375 28.6128125 5.3359375 38.1328125 C16.59277696 39.16180401 16.59277696 39.16180401 22.3359375 35.1328125 C25.4377498 31.25554712 26.48970899 27.05350009 26.3359375 22.1328125 C25.48496845 18.19444335 24.27821116 15.10649528 21.4609375 12.1953125 C16.05392775 9.49180763 11.59583729 10.1328125 5.3359375 10.1328125 Z " fill="#F33031" transform="translate(283.6640625,227.8671875)"/>
<path d="M0 0 C0 0.66 0 1.32 0 2 C0.66 2 1.32 2 2 2 C2 2.66 2 3.32 2 4 C2.66 4 3.32 4 4 4 C4.495 5.98 4.495 5.98 5 8 C1.535 10.475 1.535 10.475 -2 13 C-2.7425 12.38125 -3.485 11.7625 -4.25 11.125 C-8.64369677 7.72987068 -11.33973853 6.4224223 -17 7 C-19.71126384 8.42621684 -19.71126384 8.42621684 -22 10 C-22.66 10 -23.32 10 -24 10 C-25.76274181 13.80528391 -26.27134667 16.8160526 -26.25 21 C-26.25515625 22.010625 -26.2603125 23.02125 -26.265625 24.0625 C-25.99041858 27.10595928 -25.37074666 29.27781296 -24 32 C-22.06616713 33.30065921 -22.06616713 33.30065921 -20 34 C-19.34 34.33 -18.68 34.66 -18 35 C-12.76730994 35.40251462 -9.46059515 34.80083881 -5 32 C-4.34 31.01 -3.68 30.02 -3 29 C-0.04590299 30.37154504 2.44008376 31.98863724 5 34 C4.67 35.32 4.34 36.64 4 38 C3.34 38 2.68 38 2 38 C1.73960938 38.61359375 1.47921875 39.2271875 1.2109375 39.859375 C-0.88792339 43.56961941 -4.02949163 44.76235736 -8 46 C-15.61280943 47.13982998 -21.38053741 45.97492989 -28.13671875 42.38671875 C-30 41 -30 41 -31 38 C-31.66 38 -32.32 38 -33 38 C-37.10923554 30.60034338 -40.15577641 24.47542687 -38.25 15.875 C-37.23702112 12.36426497 -35.76254675 9.20463045 -34 6 C-33.34 6 -32.68 6 -32 6 C-31.773125 5.4225 -31.54625 4.845 -31.3125 4.25 C-29.25182643 0.71741673 -26.83951478 -1.34353194 -22.953125 -2.73046875 C-14.90848688 -4.79710854 -7.47577452 -3.73788726 0 0 Z " fill="#E2E3E4" transform="translate(123,231)"/>
<path d="M0 0 C4.08201898 2.96648748 6.32985812 6.1170738 7.625 11 C8.59458371 17.86095904 8.40111984 23.69402926 4.1640625 29.375 C0.17533424 33.58644913 -3.50222317 35.21483304 -9.3125 35.5 C-15.18024655 35.22355601 -19.64156311 33.56344703 -23.9453125 29.52734375 C-27.77355137 24.90064363 -28.82419432 19.92760354 -28.375 14 C-27.15771206 9.03830588 -25.52050429 5.17487619 -21.9375 1.5 C-14.9527647 -2.58862554 -7.41632961 -4.1171026 0 0 Z M-13.375 8 C-13.375 8.66 -13.375 9.32 -13.375 10 C-14.035 10 -14.695 10 -15.375 10 C-17.87531654 13.75047482 -17.91103554 15.55856266 -17.375 20 C-15.47850449 23.14658666 -15.47850449 23.14658666 -12.375 25 C-8.72517285 25.41909682 -8.72517285 25.41909682 -5.375 24 C-2.99000743 20.79516624 -2.35772285 18.86385763 -2.4375 14.875 C-3.54070456 11.49183935 -4.46189962 10.04704351 -7.375 8 C-10.542832 7.66551741 -10.542832 7.66551741 -13.375 8 Z " fill="#F13134" transform="translate(351.375,242)"/>
<path d="M0 0 C3.92442436 3.55066966 5.42481713 6.99751949 5.86230469 12.19335938 C5.91969088 15.40497275 5.88682471 18.60129122 5.8125 21.8125 C5.79219727 23.4821582 5.79219727 23.4821582 5.77148438 25.18554688 C5.73632997 27.91587212 5.68712106 30.64517744 5.625 33.375 C2.655 33.375 -0.315 33.375 -3.375 33.375 C-3.705 32.715 -4.035 32.055 -4.375 31.375 C-5.014375 31.87 -5.65375 32.365 -6.3125 32.875 C-10.35515338 34.85507513 -13.93792689 34.98618896 -18.375 34.375 C-21.73234087 33.13905583 -23.0914279 31.80481931 -24.6875 28.625 C-25.95996552 25.83264511 -26.37607725 24.32006013 -26.4375 21.1875 C-24.88886247 17.08816536 -22.3042052 14.3396026 -18.375 12.375 C-16.170636 12.14549681 -13.96107827 11.96424067 -11.75 11.8125 C-9.96722656 11.68681641 -9.96722656 11.68681641 -8.1484375 11.55859375 C-7.23320312 11.49800781 -6.31796875 11.43742188 -5.375 11.375 C-5.375 10.055 -5.375 8.735 -5.375 7.375 C-13.37329057 7.74973279 -13.37329057 7.74973279 -20.375 11.375 C-24.375 5.75 -24.375 5.75 -24.375 2.375 C-23.12764433 1.7240741 -21.87698168 1.07948331 -20.625 0.4375 C-19.92890625 0.07785156 -19.2328125 -0.28179687 -18.515625 -0.65234375 C-12.21950706 -3.51317106 -6.1761584 -2.9737059 0 0 Z M-15.375 20.375 C-16.43401922 22.35422654 -16.43401922 22.35422654 -16.375 24.375 C-15.15178378 25.81420901 -15.15178378 25.81420901 -11.5 25.6875 C-8.06157312 25.65813478 -8.06157312 25.65813478 -5.3125 23.5625 C-4.04195302 21.26686786 -4.04195302 21.26686786 -5.375 18.375 C-9.34102757 18.375 -11.77849908 18.77655515 -15.375 20.375 Z " fill="#E1E2E3" transform="translate(182.375,242.625)"/>
<path d="M0 0 C2.17931389 0.96934782 4.30655703 1.98553124 6.4140625 3.1015625 C6.6640625 5.3515625 6.6640625 5.3515625 6.4140625 8.1015625 C4.4140625 10.4140625 4.4140625 10.4140625 2.4140625 12.1015625 C1.7540625 11.7921875 1.0940625 11.4828125 0.4140625 11.1640625 C-3.29069765 9.85195995 -6.67857741 9.49892115 -10.5859375 9.1015625 C-9.73635664 11.38046663 -9.73635664 11.38046663 -7.0390625 11.99609375 C-5.45351563 12.45048828 -5.45351563 12.45048828 -3.8359375 12.9140625 C4.58096794 15.64955677 4.58096794 15.64955677 7.4140625 20.1015625 C8.2220666 24.07694265 7.78814633 27.16635293 6.2890625 30.9140625 C3.36266675 34.32819087 0.5818436 35.83649044 -3.91796875 36.38671875 C-11.08368581 36.6398854 -16.56684967 35.11428772 -22.5859375 31.1015625 C-21.98665924 27.74560422 -20.73971314 25.72355024 -18.5859375 23.1015625 C-15.06887792 23.75427806 -11.69268673 24.61549274 -8.2734375 25.6640625 C-7.39042969 25.93347656 -6.50742187 26.20289063 -5.59765625 26.48046875 C-4.93378906 26.68542969 -4.26992188 26.89039063 -3.5859375 27.1015625 C-3.5859375 25.7815625 -3.5859375 24.4615625 -3.5859375 23.1015625 C-4.56433594 22.95460938 -4.56433594 22.95460938 -5.5625 22.8046875 C-11.80712247 21.73628602 -16.97103579 20.51230386 -21.0234375 15.2265625 C-21.84951873 12.10581117 -21.51506327 10.1986484 -20.5859375 7.1015625 C-15.17089725 -0.50876434 -9.02425299 -3.13531448 0 0 Z " fill="#F33233" transform="translate(407.5859375,240.8984375)"/>
<path d="M0 0 C1.37478516 0.01740234 1.37478516 0.01740234 2.77734375 0.03515625 C3.69644531 0.04417969 4.61554688 0.05320313 5.5625 0.0625 C6.27277344 0.07410156 6.98304688 0.08570313 7.71484375 0.09765625 C7.71484375 3.06765625 7.71484375 6.03765625 7.71484375 9.09765625 C8.66359375 8.91203125 9.61234375 8.72640625 10.58984375 8.53515625 C13.71484375 8.09765625 13.71484375 8.09765625 15.71484375 9.09765625 C15.71484375 12.06765625 15.71484375 15.03765625 15.71484375 18.09765625 C13.40484375 18.09765625 11.09484375 18.09765625 8.71484375 18.09765625 C8.72644531 18.66613281 8.73804688 19.23460937 8.75 19.8203125 C8.80707569 24.70436109 8.53441147 29.2826959 7.71484375 34.09765625 C8.66359375 34.05640625 9.61234375 34.01515625 10.58984375 33.97265625 C13.71484375 34.09765625 13.71484375 34.09765625 15.71484375 36.09765625 C16.11531819 38.42040802 16.45455415 40.75504982 16.71484375 43.09765625 C12.64949245 45.80789045 9.48375678 45.72428817 4.71484375 45.09765625 C1.38073018 43.70339057 -0.56205232 42.68708759 -2.09375 39.3203125 C-3.95190788 32.43872092 -3.4659714 25.15949235 -3.28515625 18.09765625 C-4.93515625 17.76765625 -6.58515625 17.43765625 -8.28515625 17.09765625 C-8.41015625 11.34765625 -8.41015625 11.34765625 -7.28515625 9.09765625 C-6.29515625 8.76765625 -5.30515625 8.43765625 -4.28515625 8.09765625 C-4.14078125 6.96328125 -3.99640625 5.82890625 -3.84765625 4.66015625 C-3.13298234 0.13388813 -3.13298234 0.13388813 0 0 Z " fill="#F42F30" transform="translate(368.28515625,231.90234375)"/>
<path d="M0 0 C-0.66 2.64 -1.32 5.28 -2 8 C-3.423125 7.9690625 -3.423125 7.9690625 -4.875 7.9375 C-7.90666283 7.77448174 -7.90666283 7.77448174 -10 9 C-10.33 9.99 -10.66 10.98 -11 12 C-8.69 12 -6.38 12 -4 12 C-4 14.97 -4 17.94 -4 21 C-6.31 21 -8.62 21 -11 21 C-11 29.58 -11 38.16 -11 47 C-14.3 47 -17.6 47 -21 47 C-21 38.42 -21 29.84 -21 21 C-22.98 21 -24.96 21 -27 21 C-27.09765625 14.84765625 -27.09765625 14.84765625 -27 13 C-26 12 -26 12 -23.4375 11.9375 C-22.633125 11.958125 -21.82875 11.97875 -21 12 C-20.8453125 10.14375 -20.8453125 10.14375 -20.6875 8.25 C-20.22369388 4.70250995 -19.75572337 2.47064854 -17 0 C-11.18806986 -2.83838448 -6.01166468 -2.00388823 0 0 Z " fill="#E9EBEB" transform="translate(217,229)"/>
<path d="M0 0 C3.3 0 6.6 0 10 0 C10.33 2.64 10.66 5.28 11 8 C12.98 8 14.96 8 17 8 C17 10.64 17 13.28 17 16 C14.69 16 12.38 16 10 16 C10.1136515 18.62594784 10.24039054 21.25011547 10.375 23.875 C10.4059375 24.62136719 10.436875 25.36773437 10.46875 26.13671875 C10.55643831 30.53473188 10.55643831 30.53473188 13 34 C14.32 34 15.64 34 17 34 C18.4783226 36.95664519 18.06032783 39.74229737 18 43 C14.2685172 44.2438276 10.86908268 44.6643142 7 44 C3.47319621 42.03982364 1.29766886 39.89300657 0 36 C-0.0806622 34.51876453 -0.10761193 33.03417796 -0.09765625 31.55078125 C-0.09443359 30.70322266 -0.09121094 29.85566406 -0.08789062 28.98242188 C-0.07951172 28.10134766 -0.07113281 27.22027344 -0.0625 26.3125 C-0.05798828 25.41982422 -0.05347656 24.52714844 -0.04882812 23.60742188 C-0.03704983 21.40488013 -0.02060164 19.20247401 0 17 C-1.65 17 -3.3 17 -5 17 C-5 14.03 -5 11.06 -5 8 C-3.35 8 -1.7 8 0 8 C0 5.36 0 2.72 0 0 Z " fill="#E4E6E7" transform="translate(219,233)"/>
<path d="M0 0 C0.125 7.75 0.125 7.75 -1 10 C-1.9075 9.938125 -2.815 9.87625 -3.75 9.8125 C-7.40851753 10.02356832 -8.43371108 10.47229419 -11 13 C-11.63970595 15.40238852 -11.63970595 15.40238852 -11.609375 18.10546875 C-11.64160156 19.08837891 -11.67382812 20.07128906 -11.70703125 21.08398438 C-11.72830078 22.62022461 -11.72830078 22.62022461 -11.75 24.1875 C-11.77964844 25.22326172 -11.80929688 26.25902344 -11.83984375 27.32617188 C-11.91055865 29.88369417 -11.95754112 32.4418526 -12 35 C-15.3 35 -18.6 35 -22 35 C-22 23.45 -22 11.9 -22 0 C-19.03 0 -16.06 0 -13 0 C-12.34 0.66 -11.68 1.32 -11 2 C-10.29875 1.484375 -9.5975 0.96875 -8.875 0.4375 C-5.39112465 -1.30443767 -3.7016431 -0.94693195 0 0 Z " fill="#EBECED" transform="translate(154,241)"/>
<path d="M0 0 C0.95777344 -0.00128906 1.91554688 -0.00257813 2.90234375 -0.00390625 C3.91167969 -0.00003906 4.92101562 0.00382813 5.9609375 0.0078125 C6.94707031 0.00394531 7.93320312 0.00007812 8.94921875 -0.00390625 C14.18633054 0.00308589 19.17652554 0.22232804 24.3359375 1.1328125 C24.3359375 1.7928125 24.3359375 2.4528125 24.3359375 3.1328125 C25.0578125 3.3390625 25.7796875 3.5453125 26.5234375 3.7578125 C31.79418694 6.33462334 34.46905273 10.73333113 36.3359375 16.1328125 C37.93386849 23.84613354 37.42949245 30.85877789 34.3359375 38.1328125 C30.56964649 42.91702 25.44205396 47.02291997 19.3359375 48.1328125 C17.3842048 48.21341247 15.42993332 48.24043493 13.4765625 48.23046875 C12.36152344 48.22724609 11.24648438 48.22402344 10.09765625 48.22070312 C8.93878906 48.21232422 7.77992188 48.20394531 6.5859375 48.1953125 C5.41160156 48.19080078 4.23726563 48.18628906 3.02734375 48.18164062 C0.13015678 48.16986344 -2.76692704 48.15341576 -5.6640625 48.1328125 C-5.68933195 41.4576091 -5.70689518 34.78241793 -5.71899414 28.10717773 C-5.72403575 25.83438659 -5.73086887 23.5615987 -5.73950195 21.28881836 C-5.75157511 18.02977699 -5.75729237 14.77077833 -5.76171875 11.51171875 C-5.76688004 10.48881241 -5.77204132 9.46590607 -5.77735901 8.41200256 C-5.77743454 7.47110275 -5.77751007 6.53020294 -5.77758789 5.56079102 C-5.7798085 4.72806168 -5.78202911 3.89533234 -5.78431702 3.03736877 C-5.54536742 -0.74704594 -3.24637175 0.0041997 0 0 Z M-3.6640625 3.1328125 C-3.7568458 4.51441365 -3.78153293 5.90069288 -3.77758789 7.28540039 C-3.77751236 8.16623795 -3.77743683 9.0470755 -3.77735901 9.9546051 C-3.77219772 10.91189011 -3.76703644 11.86917511 -3.76171875 12.85546875 C-3.7603038 13.83067978 -3.75888885 14.80589081 -3.75743103 15.81065369 C-3.75181383 18.93890393 -3.73925843 22.06708373 -3.7265625 25.1953125 C-3.72154972 27.31054584 -3.71698643 29.42578031 -3.71289062 31.54101562 C-3.70183881 36.73830546 -3.68508396 41.93555395 -3.6640625 47.1328125 C-0.45580688 47.19130804 2.75230983 47.22657412 5.9609375 47.2578125 C7.31638672 47.28294922 7.31638672 47.28294922 8.69921875 47.30859375 C13.66343902 47.34482893 17.68005657 47.09725396 22.3359375 45.1328125 C22.3359375 44.4728125 22.3359375 43.8128125 22.3359375 43.1328125 C23.6559375 43.1328125 24.9759375 43.1328125 26.3359375 43.1328125 C26.3359375 42.4728125 26.3359375 41.8128125 26.3359375 41.1328125 C28.8109375 40.6378125 28.8109375 40.6378125 31.3359375 40.1328125 C31.3359375 39.4728125 31.3359375 38.8128125 31.3359375 38.1328125 C31.9959375 38.1328125 32.6559375 38.1328125 33.3359375 38.1328125 C33.6659375 33.1828125 33.9959375 28.2328125 34.3359375 23.1328125 C33.6759375 22.8028125 33.0159375 22.4728125 32.3359375 22.1328125 C31.3459375 22.6278125 31.3459375 22.6278125 30.3359375 23.1328125 C30.6659375 22.4109375 30.9959375 21.6890625 31.3359375 20.9453125 C32.34197279 18.11583823 32.50571152 16.10385784 32.3359375 13.1328125 C31.6759375 12.8028125 31.0159375 12.4728125 30.3359375 12.1328125 C29.8409375 10.6478125 29.8409375 10.6478125 29.3359375 9.1328125 C27.32085392 8.39957454 27.32085392 8.39957454 25.3359375 8.1328125 C23.98209345 11.51742263 24.7615984 13.56294359 25.85546875 16.91796875 C26.86357339 21.56508527 26.47573269 26.40307538 26.3359375 31.1328125 C26.0059375 30.8028125 25.6759375 30.4728125 25.3359375 30.1328125 C25.6453125 28.369375 25.6453125 28.369375 25.9609375 26.5703125 C26.61582575 21.84150901 25.65711958 18.27846279 23.3359375 14.1328125 C20.61872461 11.32502584 18.16324362 10.66438279 14.3359375 10.1328125 C17.3059375 9.4728125 20.2759375 8.8128125 23.3359375 8.1328125 C23.3359375 6.8128125 23.3359375 5.4928125 23.3359375 4.1328125 C9.22506542 0.75817165 9.22506542 0.75817165 -3.6640625 3.1328125 Z " fill="#BA2E2F" transform="translate(283.6640625,227.8671875)"/>
<path d="M0 0 C0.886875 -0.02578125 1.77375 -0.0515625 2.6875 -0.078125 C3.8321875 0.08429688 3.8321875 0.08429688 5 0.25 C6.86619231 3.04928846 7.57248259 4.8809953 8.4375 8.0625 C9.58192544 12.05047231 10.98473498 15.60332996 13 19.25 C14.8272911 16.50906335 15.93698178 14.11174676 17.125 11.0625 C17.47820312 10.16144531 17.83140625 9.26039063 18.1953125 8.33203125 C18.46085937 7.64496094 18.72640625 6.95789063 19 6.25 C19.5534764 8.32553648 20 10.09365964 20 12.25 C20.66 12.58 21.32 12.91 22 13.25 C19.7674773 18.05851043 16.801496 21.57959007 13 25.25 C12.01 24.59 11.02 23.93 10 23.25 C9.01 23.58 8.02 23.91 7 24.25 C7.33 25.24 7.66 26.23 8 27.25 C7.34 28.24 6.68 29.23 6 30.25 C5.70867187 29.54617188 5.41734375 28.84234375 5.1171875 28.1171875 C1.80366803 20.13556513 -1.58301607 12.18773586 -5 4.25 C-5.33 5.9 -5.66 7.55 -6 9.25 C-8.31 9.25 -10.62 9.25 -13 9.25 C-13 11.56 -13 13.87 -13 16.25 C-13.33 16.25 -13.66 16.25 -14 16.25 C-14 13.61 -14 10.97 -14 8.25 C-11.69 8.25 -9.38 8.25 -7 8.25 C-7 5.94 -7 3.63 -7 1.25 C-4.53183586 0.01591793 -2.75338799 0.04802421 0 0 Z " fill="#D0D1D3" transform="translate(243,240.75)"/>
<path d="M0 0 C1.37478516 0.01740234 1.37478516 0.01740234 2.77734375 0.03515625 C3.69644531 0.04417969 4.61554688 0.05320313 5.5625 0.0625 C6.27277344 0.07410156 6.98304688 0.08570313 7.71484375 0.09765625 C7.71484375 3.06765625 7.71484375 6.03765625 7.71484375 9.09765625 C8.66359375 8.91203125 9.61234375 8.72640625 10.58984375 8.53515625 C13.71484375 8.09765625 13.71484375 8.09765625 15.71484375 9.09765625 C15.71484375 12.06765625 15.71484375 15.03765625 15.71484375 18.09765625 C13.40484375 18.09765625 11.09484375 18.09765625 8.71484375 18.09765625 C8.72644531 18.66613281 8.73804688 19.23460937 8.75 19.8203125 C8.80707569 24.70436109 8.53441147 29.2826959 7.71484375 34.09765625 C8.66359375 34.05640625 9.61234375 34.01515625 10.58984375 33.97265625 C13.71484375 34.09765625 13.71484375 34.09765625 15.71484375 36.09765625 C16.11531819 38.42040802 16.45455415 40.75504982 16.71484375 43.09765625 C12.64949245 45.80789045 9.48375678 45.72428817 4.71484375 45.09765625 C1.38073018 43.70339057 -0.56205232 42.68708759 -2.09375 39.3203125 C-3.95190788 32.43872092 -3.4659714 25.15949235 -3.28515625 18.09765625 C-4.93515625 17.76765625 -6.58515625 17.43765625 -8.28515625 17.09765625 C-8.41015625 11.34765625 -8.41015625 11.34765625 -7.28515625 9.09765625 C-6.29515625 8.76765625 -5.30515625 8.43765625 -4.28515625 8.09765625 C-4.14078125 6.96328125 -3.99640625 5.82890625 -3.84765625 4.66015625 C-3.13298234 0.13388813 -3.13298234 0.13388813 0 0 Z M-1.28515625 3.09765625 C-1.61515625 5.73765625 -1.94515625 8.37765625 -2.28515625 11.09765625 C-3.27515625 11.42765625 -4.26515625 11.75765625 -5.28515625 12.09765625 C-3.96515625 12.09765625 -2.64515625 12.09765625 -1.28515625 12.09765625 C-1.29301147 13.20222168 -1.29301147 13.20222168 -1.30102539 14.32910156 C-1.32182492 17.6686111 -1.33482593 21.00810699 -1.34765625 24.34765625 C-1.35603516 25.50652344 -1.36441406 26.66539062 -1.37304688 27.859375 C-1.37626953 28.97441406 -1.37949219 30.08945312 -1.3828125 31.23828125 C-1.38804932 32.26469727 -1.39328613 33.29111328 -1.39868164 34.34863281 C-1.29752268 36.79820254 -1.12396639 38.79862159 -0.28515625 41.09765625 C2.35942754 42.41994814 4.39245676 42.19442819 7.33984375 42.16015625 C8.34273438 42.15113281 9.345625 42.14210938 10.37890625 42.1328125 C11.14976562 42.12121094 11.920625 42.10960937 12.71484375 42.09765625 C12.71484375 41.10765625 12.71484375 40.11765625 12.71484375 39.09765625 C11.72484375 39.09765625 10.73484375 39.09765625 9.71484375 39.09765625 C9.38484375 38.43765625 9.05484375 37.77765625 8.71484375 37.09765625 C7.72484375 37.09765625 6.73484375 37.09765625 5.71484375 37.09765625 C6.37484375 30.82765625 7.03484375 24.55765625 7.71484375 18.09765625 C9.69484375 17.76765625 11.67484375 17.43765625 13.71484375 17.09765625 C13.71484375 15.44765625 13.71484375 13.79765625 13.71484375 12.09765625 C9.80421151 10.62718289 9.80421151 10.62718289 5.71484375 10.09765625 C5.71484375 7.78765625 5.71484375 5.47765625 5.71484375 3.09765625 C3.40484375 3.09765625 1.09484375 3.09765625 -1.28515625 3.09765625 Z " fill="#912629" transform="translate(368.28515625,231.90234375)"/>
<path d="M0 0 C1.9375 0.75 1.9375 0.75 4 2 C5.15269025 5.1937337 5.11557341 8.27219948 5.09765625 11.640625 C5.09443359 12.71054687 5.09121094 13.78046875 5.08789062 14.8828125 C5.07951172 15.99398438 5.07113281 17.10515625 5.0625 18.25 C5.05798828 19.37664062 5.05347656 20.50328125 5.04882812 21.6640625 C5.03705397 24.44276217 5.0206084 27.22135409 5 30 C2.36 29.67 -0.28 29.34 -3 29 C-3.50141742 27.02119196 -4.00109709 25.0419435 -4.5 23.0625 C-4.7784375 21.96035156 -5.056875 20.85820312 -5.34375 19.72265625 C-6 17 -6 17 -6 16 C-10.455 15.01 -10.455 15.01 -15 14 C-14 12 -14 12 -12 10 C-9.24627091 9.63066355 -6.79634339 9.81663322 -4 10 C-4 8.35 -4 6.7 -4 5 C-3.34 5 -2.68 5 -2 5 C-1.34 3.35 -0.68 1.7 0 0 Z " fill="#EAEBEB" transform="translate(183,246)"/>
<path d="M0 0 C2 2 2 2 2.125 5.046875 C2.04201788 7.50522021 1.95868753 9.9635537 1.875 12.421875 C2.00050205 16.0143713 2.6932419 18.67185046 4 22 C5.04800781 22.03867187 5.04800781 22.03867187 6.1171875 22.078125 C7.02726562 22.13484375 7.93734375 22.1915625 8.875 22.25 C10.23238281 22.31960938 10.23238281 22.31960938 11.6171875 22.390625 C14 23 14 23 15.3203125 25.046875 C15.54460937 25.69140625 15.76890625 26.3359375 16 27 C11.6209818 29.1895091 6.04434606 28.5751677 1.4453125 27.28125 C-1.97555839 25.8904697 -4.45745714 24.57645179 -7 21.875 C-9.03660371 16.01976433 -9.78304426 10.3868295 -7.75 4.4375 C-5.58789659 0.19051117 -4.6327989 0 0 0 Z " fill="#EF3234" transform="translate(332,247)"/>
<path d="M0 0 C1.08667969 0.29197266 1.08667969 0.29197266 2.1953125 0.58984375 C2.74960937 0.74582031 3.30390625 0.90179688 3.875 1.0625 C3.875 1.7225 3.875 2.3825 3.875 3.0625 C4.64585937 3.19527344 5.41671875 3.32804687 6.2109375 3.46484375 C7.21382813 3.64144531 8.21671875 3.81804687 9.25 4 C10.74660156 4.26103516 10.74660156 4.26103516 12.2734375 4.52734375 C14.875 5.0625 14.875 5.0625 16.875 6.0625 C17.76593449 9.70723199 18.11166047 12.48992531 16.875 16.0625 C16.215 16.0625 15.555 16.0625 14.875 16.0625 C14.875 17.0525 14.875 18.0425 14.875 19.0625 C11.0793213 20.81005005 7.98471177 21.38475396 3.8125 21.4375 C2.27916016 21.48003906 2.27916016 21.48003906 0.71484375 21.5234375 C-2.81205688 20.9509832 -3.9377761 19.82584582 -6.125 17.0625 C-6.875 14.8125 -6.875 14.8125 -7.125 13.0625 C-5.805 13.0625 -4.485 13.0625 -3.125 13.0625 C-3.125 13.7225 -3.125 14.3825 -3.125 15.0625 C0.835 15.0625 4.795 15.0625 8.875 15.0625 C8.875 12.7525 8.875 10.4425 8.875 8.0625 C8.12734375 7.96453125 7.3796875 7.8665625 6.609375 7.765625 C-1.48861768 6.53608684 -1.48861768 6.53608684 -4.8125 4.0625 C-6.125 2.0625 -6.125 2.0625 -6.125 0.0625 C-3.57797384 -1.21101308 -2.6967055 -0.73941925 0 0 Z " fill="#EF3234" transform="translate(396.125,253.9375)"/>
<path d="M0 0 C4.29 0 8.58 0 13 0 C17.48303033 6.1641667 17.66885392 11.50006427 17 19 C16.67 19.99 16.34 20.98 16 22 C16.99 22 17.98 22 19 22 C19 21.34 19 20.68 19 20 C19.99 20.33 20.98 20.66 22 21 C15.74937656 27.5978803 15.74937656 27.5978803 10.703125 28.3359375 C4.34461487 28.43718766 0.4733262 27.24345256 -5 24 C-4.34 23.67 -3.68 23.34 -3 23 C-2.26394531 23.30679687 -1.52789062 23.61359375 -0.76953125 23.9296875 C2.44738033 25.17289451 4.87791399 25.20048541 8.3125 25.125 C9.38113281 25.10695313 10.44976562 25.08890625 11.55078125 25.0703125 C12.76314453 25.03550781 12.76314453 25.03550781 14 25 C12.36221601 21.7882039 12.36221601 21.7882039 9.6171875 21.48828125 C8.25980469 21.40126953 8.25980469 21.40126953 6.875 21.3125 C5.96492188 21.24675781 5.05484375 21.18101562 4.1171875 21.11328125 C3.41851562 21.07589844 2.71984375 21.03851563 2 21 C-1.20352111 14.99339792 -1.5595043 9.75709035 -1 3 C-0.67 2.01 -0.34 1.02 0 0 Z M4 1 C4 1.66 4 2.32 4 3 C3.34 3 2.68 3 2 3 C-0.50031654 6.75047482 -0.53603554 8.55856266 0 13 C1.89649551 16.14658666 1.89649551 16.14658666 5 18 C8.64982715 18.41909682 8.64982715 18.41909682 12 17 C14.38499257 13.79516624 15.01727715 11.86385763 14.9375 7.875 C13.83429544 4.49183935 12.91310038 3.04704351 10 1 C6.832168 0.66551741 6.832168 0.66551741 4 1 Z " fill="#CC3235" transform="translate(334,249)"/>
<path d="M0 0 C0.91644287 0.00523682 1.83288574 0.01047363 2.77709961 0.01586914 C3.76645508 0.0190918 4.75581055 0.02231445 5.77514648 0.02563477 C6.81606445 0.03401367 7.85698242 0.04239258 8.92944336 0.05102539 C10.49662109 0.05779297 10.49662109 0.05779297 12.09545898 0.06469727 C14.68600996 0.07652627 17.27644895 0.0930085 19.86694336 0.11352539 C20.19694336 0.77352539 20.52694336 1.43352539 20.86694336 2.11352539 C10.47194336 2.60852539 10.47194336 2.60852539 -0.13305664 3.11352539 C-0.46305664 17.63352539 -0.79305664 32.15352539 -1.13305664 47.11352539 C11.9206547 46.61098995 11.9206547 46.61098995 24.86694336 45.11352539 C24.86694336 44.45352539 24.86694336 43.79352539 24.86694336 43.11352539 C26.18694336 43.11352539 27.50694336 43.11352539 28.86694336 43.11352539 C28.86694336 42.45352539 28.86694336 41.79352539 28.86694336 41.11352539 C31.34194336 40.61852539 31.34194336 40.61852539 33.86694336 40.11352539 C33.86694336 39.45352539 33.86694336 38.79352539 33.86694336 38.11352539 C34.85694336 38.60852539 34.85694336 38.60852539 35.86694336 39.11352539 C31.05502116 44.29559545 26.28882509 47.9309166 19.11791992 48.22705078 C18.09150391 48.22181396 17.06508789 48.21657715 16.00756836 48.21118164 C14.8925293 48.20795898 13.77749023 48.20473633 12.62866211 48.20141602 C11.46979492 48.19303711 10.31092773 48.1846582 9.11694336 48.17602539 C7.94260742 48.17151367 6.76827148 48.16700195 5.55834961 48.16235352 C2.66116263 48.15057633 -0.23592118 48.13412865 -3.13305664 48.11352539 C-3.15832609 41.43832199 -3.17588932 34.76313082 -3.18798828 28.08789062 C-3.19302989 25.81509948 -3.19986301 23.54231159 -3.20849609 21.26953125 C-3.22056925 18.01048988 -3.22628651 14.75149122 -3.23071289 11.49243164 C-3.23587418 10.4695253 -3.24103546 9.44661896 -3.24635315 8.39271545 C-3.24642868 7.45181564 -3.24650421 6.51091583 -3.24658203 5.54150391 C-3.24880264 4.70877457 -3.25102325 3.87604523 -3.25331116 3.01808167 C-3.08062236 0.28308636 -2.7343088 0.14552519 0 0 Z " fill="#97282C" transform="translate(281.133056640625,227.886474609375)"/>
<path d="M0 0 C1.21816406 0.03480469 1.21816406 0.03480469 2.4609375 0.0703125 C3.68683594 0.09738281 3.68683594 0.09738281 4.9375 0.125 C5.87722656 0.15980469 5.87722656 0.15980469 6.8359375 0.1953125 C6.33129128 5.24177466 5.15995955 8.72603933 2.8359375 13.1953125 C2.04093447 15.42869731 1.32083708 17.67995137 0.59765625 19.9375 C-0.47394984 23.11385037 -1.79702111 26.13574367 -3.1640625 29.1953125 C-3.8240625 28.8653125 -4.4840625 28.5353125 -5.1640625 28.1953125 C-5.71759325 17.63722594 -5.71759325 17.63722594 -2.1640625 13.1953125 C-3.1540625 12.8653125 -4.1440625 12.5353125 -5.1640625 12.1953125 C-5.05007585 10.56950284 -4.92250591 8.94464093 -4.7890625 7.3203125 C-4.71945312 6.41539062 -4.64984375 5.51046875 -4.578125 4.578125 C-4.03391966 1.4463773 -3.24258527 0.2926521 0 0 Z " fill="#DEDFE0" transform="translate(267.1640625,240.8046875)"/>
<path d="M0 0 C3.65943647 0.68907122 7.22441959 1.56821266 10.8125 2.5625 C12.27623047 2.96662109 12.27623047 2.96662109 13.76953125 3.37890625 C14.50558594 3.58386719 15.24164063 3.78882813 16 4 C16 6.31 16 8.62 16 11 C12.04 11 8.08 11 4 11 C4 10.34 4 9.68 4 9 C2.68 9 1.36 9 0 9 C1.68807908 13.23084903 1.68807908 13.23084903 5 16 C6.93550864 16.09720427 8.87455792 16.12977914 10.8125 16.125 C11.85019531 16.12757813 12.88789063 16.13015625 13.95703125 16.1328125 C16.75342942 16.01076175 19.27939879 15.63363355 22 15 C22 14.01 22 13.02 22 12 C22.66 12 23.32 12 24 12 C23.67 8.04 23.34 4.08 23 0 C26 3 26 3 26.375 6.875 C26.20783489 10.67104114 25.5296708 13.0487174 23 16 C17.96404269 19.56201859 12.94815265 19.69654792 7 19 C2.93787086 17.93137918 -0.4917259 16.3388494 -4 14 C-3.40072174 10.64404172 -2.15377564 8.62198774 0 6 C3.51705958 6.65271556 6.89325077 7.51393024 10.3125 8.5625 C11.19550781 8.83191406 12.07851563 9.10132813 12.98828125 9.37890625 C13.65214844 9.58386719 14.31601562 9.78882813 15 10 C15 8.68 15 7.36 15 6 C14.33613281 5.89042969 13.67226563 5.78085937 12.98828125 5.66796875 C3.97845006 4.05014505 3.97845006 4.05014505 0 1 C0 0.67 0 0.34 0 0 Z " fill="#9E3234" transform="translate(389,258)"/>
<path d="M0 0 C0.125 7.75 0.125 7.75 -1 10 C-1.928125 9.979375 -2.85625 9.95875 -3.8125 9.9375 C-7.02286011 9.84230396 -7.02286011 9.84230396 -10 11 C-13.93846154 6.69230769 -13.93846154 6.69230769 -14.25 3.1875 C-14.1675 2.465625 -14.085 1.74375 -14 1 C-16.31 1 -18.62 1 -21 1 C-21 11.89 -21 22.78 -21 34 C-20.01 34.33 -19.02 34.66 -18 35 C-19.32 35 -20.64 35 -22 35 C-22 23.45 -22 11.9 -22 0 C-19.03 0 -16.06 0 -13 0 C-12.34 0.66 -11.68 1.32 -11 2 C-10.29875 1.484375 -9.5975 0.96875 -8.875 0.4375 C-5.39112465 -1.30443767 -3.7016431 -0.94693195 0 0 Z " fill="#CED0D2" transform="translate(154,241)"/>
<path d="M0 0 C2.8003444 2.65532656 4.44611669 5.487798 6 9 C5.67 9.66 5.34 10.32 5 11 C4.34 11 3.68 11 3 11 C3 11.66 3 12.32 3 13 C2.34 13 1.68 13 1 13 C-2 8.61538462 -2 8.61538462 -2 6 C-3.39025391 6.01740234 -3.39025391 6.01740234 -4.80859375 6.03515625 C-6.00613281 6.04417969 -7.20367187 6.05320313 -8.4375 6.0625 C-9.63246094 6.07410156 -10.82742188 6.08570313 -12.05859375 6.09765625 C-15 6 -15 6 -16 5 C-16.04063832 3.33382885 -16.042721 1.66611905 -16 0 C-10.71357302 -1.76214233 -5.35268152 -1.43656526 0 0 Z " fill="#F43031" transform="translate(349,243)"/>
<path d="M0 0 C2.95409701 1.37154504 5.44008376 2.98863724 8 5 C7.67 6.32 7.34 7.64 7 9 C6.34 9 5.68 9 5 9 C4.773125 9.598125 4.54625 10.19625 4.3125 10.8125 C2.64390958 13.59348403 0.8716168 14.5641916 -2 16 C-2.66 16 -3.32 16 -4 16 C-4.45572917 13.98177083 -4.91145833 11.96354167 -5.3671875 9.9453125 C-5.90474428 7.79280036 -5.90474428 7.79280036 -8 6 C-7.05125 5.566875 -6.1025 5.13375 -5.125 4.6875 C-1.79958063 3.20697799 -1.79958063 3.20697799 0 0 Z " fill="#D7D8DA" transform="translate(120,260)"/>
<path d="M0 0 C7.625 0.875 7.625 0.875 11 2 C10.34 4.64 9.68 7.28 9 10 C7.576875 9.9690625 7.576875 9.9690625 6.125 9.9375 C3.09333717 9.77448174 3.09333717 9.77448174 1 11 C0.67 11.99 0.34 12.98 0 14 C2.31 14 4.62 14 7 14 C7 16.97 7 19.94 7 23 C4.69 23 2.38 23 0 23 C0 26.3 0 29.6 0 33 C-0.33 33 -0.66 33 -1 33 C-1 29.37 -1 25.74 -1 22 C1.31 22 3.62 22 6 22 C6 19.69 6 17.38 6 15 C3.69 15 1.38 15 -1 15 C-2.01661577 10.62855218 -2.16888759 7.99531924 0 4 C0.66 3.67 1.32 3.34 2 3 C1.34 2.67 0.68 2.34 0 2 C0 1.34 0 0.68 0 0 Z " fill="#C5C6C8" transform="translate(206,227)"/>
<path d="M0 0 C0.33 0 0.66 0 1 0 C1 2.31 1 4.62 1 7 C2.65 7 4.3 7 6 7 C6 6.34 6 5.68 6 5 C6.66 5 7.32 5 8 5 C8.33 5.66 8.66 6.32 9 7 C10.9517941 7.76174586 12.93782468 8.43715564 14.9375 9.0625 C20.87702265 10.93851133 20.87702265 10.93851133 23 12 C22.67 12.99 22.34 13.98 22 15 C16.06 14.01 16.06 14.01 10 13 C10.33 12.01 10.66 11.02 11 10 C7.7 9.67 4.4 9.34 1 9 C1.33 10.32 1.66 11.64 2 13 C1.01 13 0.02 13 -1 13 C-2.71928713 10.37050204 -3.01045637 9.12809053 -2.75 5.9375 C-2 3 -2 3 0 0 Z " fill="#D83236" transform="translate(389,245)"/>
<path d="M0 0 C3.125 -0.1875 3.125 -0.1875 6 0 C6.268125 0.7425 6.53625 1.485 6.8125 2.25 C7.94229421 4.86636554 9.20893202 6.80187111 11 9 C5.83955235 10.512545 2.34001821 11.33500455 -3 10 C-2.25 3.375 -2.25 3.375 0 0 Z " fill="#D1D3D6" transform="translate(244,278)"/>
<path d="M0 0 C0.33 0 0.66 0 1 0 C1 1.98 1 3.96 1 6 C2.11375 5.95875 3.2275 5.9175 4.375 5.875 C8 6 8 6 10 8 C10.40047444 10.32275177 10.7397104 12.65739357 11 15 C6.97256339 17.68495774 3.73132484 17.57173628 -1 17 C-4.0625 15.5 -4.0625 15.5 -6 14 C-3.27157939 12.63578969 -1.39046682 13.12192789 1.625 13.4375 C2.62789063 13.53933594 3.63078125 13.64117187 4.6640625 13.74609375 C5.43492187 13.82988281 6.20578125 13.91367187 7 14 C7 13.01 7 12.02 7 11 C6.01 11.33 5.02 11.66 4 12 C3.67 11.01 3.34 10.02 3 9 C2.01 9 1.02 9 0 9 C0 6.03 0 3.06 0 0 Z " fill="#B03032" transform="translate(374,260)"/>
<path d="M0 0 C1.125 3.75 1.125 3.75 0 6 C-0.04022391 8.3329866 -0.04320247 10.66706666 0 13 C0.45375 12.505 0.9075 12.01 1.375 11.5 C3 10 3 10 5 10 C5.335939 11.4577353 5.66866624 12.91621106 6 14.375 C6.185625 15.18710937 6.37125 15.99921875 6.5625 16.8359375 C7 19 7 19 7 21 C5.68 21 4.36 21 3 21 C2.67 21.99 2.34 22.98 2 24 C-2.07959653 18.99920426 -3.29768797 14.46975198 -3 8 C-2.26277986 5.10711083 -1.2625588 2.727127 0 0 Z " fill="#F62E30" transform="translate(326,248)"/>
<path d="M0 0 C0.33 0 0.66 0 1 0 C1 9.24 1 18.48 1 28 C12.03103721 27.67082039 12.03103721 27.67082039 18 25 C18.33 24.01 18.66 23.02 19 22 C19.66 22.33 20.32 22.66 21 23 C20.25 24.9375 20.25 24.9375 19 27 C17.67405895 27.36162029 16.34061543 27.69728039 15 28 C14.67 28.99 14.34 29.98 14 31 C9.38 31 4.76 31 0 31 C0 20.77 0 10.54 0 0 Z " fill="#C53D3E" transform="translate(288,238)"/>
<path d="M0 0 C2.18542709 0.96213771 4.31211065 1.97652254 6.421875 3.09375 C6.671875 5.34375 6.671875 5.34375 6.421875 8.09375 C4.421875 10.40625 4.421875 10.40625 2.421875 12.09375 C1.74125 11.784375 1.060625 11.475 0.359375 11.15625 C-2.94778412 9.96004351 -6.09358378 9.50369603 -9.578125 9.09375 C-9.578125 8.76375 -9.578125 8.43375 -9.578125 8.09375 C-7.97405172 8.06666433 -6.3698465 8.04731517 -4.765625 8.03125 C-3.87230469 8.01964844 -2.97898437 8.00804687 -2.05859375 7.99609375 C0.421875 8.09375 0.421875 8.09375 3.421875 9.09375 C3.421875 7.44375 3.421875 5.79375 3.421875 4.09375 C2.535 3.949375 1.648125 3.805 0.734375 3.65625 C-2.578125 3.09375 -2.578125 3.09375 -5.015625 2.46875 C-8.35718095 1.97974181 -11.26155363 2.5409881 -14.578125 3.09375 C-15.568125 3.09375 -16.558125 3.09375 -17.578125 3.09375 C-11.98235042 -1.49765478 -6.93395383 -2.43738983 0 0 Z " fill="#A0312E" transform="translate(407.578125,240.90625)"/>
<path d="M0 0 C3.875 0.875 3.875 0.875 5 2 C5.15858842 4.14386657 5.25129298 6.29266838 5.31640625 8.44140625 C5.35830078 9.74658203 5.40019531 11.05175781 5.44335938 12.39648438 C5.48317608 13.7851533 5.52288825 15.17382522 5.5625 16.5625 C5.60567989 17.95509183 5.649294 19.34767028 5.69335938 20.74023438 C5.79985876 24.16004801 5.90186923 27.57993763 6 31 C1.87761209 26.87761209 2.94304432 20.04583385 2.9375 14.5625 C2.95346745 12.37495907 2.97269506 10.18742879 3 8 C1.68 8 0.36 8 -1 8 C-1.125 2.25 -1.125 2.25 0 0 Z " fill="#B32D2F" transform="translate(362,242)"/>
<path d="M0 0 C5.34794045 3.15710259 5.34794045 3.15710259 6.62109375 6.9765625 C4.24609375 6.6640625 4.24609375 6.6640625 1.62109375 5.9765625 C0.96109375 4.9865625 0.30109375 3.9965625 -0.37890625 2.9765625 C-3.1515288 2.59261583 -5.72214153 2.37314002 -8.50390625 2.2890625 C-9.25800781 2.25490234 -10.01210938 2.22074219 -10.7890625 2.18554688 C-12.65181826 2.10301972 -14.51533951 2.03811539 -16.37890625 1.9765625 C-16.04890625 3.9565625 -15.71890625 5.9365625 -15.37890625 7.9765625 C-16.36890625 8.4715625 -16.36890625 8.4715625 -17.37890625 8.9765625 C-17.37890625 7.9865625 -17.37890625 6.9965625 -17.37890625 5.9765625 C-19.02890625 6.3065625 -20.67890625 6.6365625 -22.37890625 6.9765625 C-20.64020674 2.83845766 -18.7184461 1.56301993 -14.72265625 -0.25390625 C-9.70419873 -1.90163314 -4.89764646 -2.10703345 0 0 Z " fill="#BC3333" transform="translate(349.37890625,241.0234375)"/>
<path d="M0 0 C2.10241603 -0.13496251 4.2072961 -0.23197307 6.3125 -0.3125 C7.48425781 -0.37050781 8.65601563 -0.42851562 9.86328125 -0.48828125 C13 0 13 0 14.89453125 2.26171875 C16.50810829 6.25860039 16.41609299 8.70037244 16 13 C14.4765625 14.7421875 14.4765625 14.7421875 13 16 C13.08378906 15.39671875 13.16757812 14.7934375 13.25390625 14.171875 C13.40666016 12.97304688 13.40666016 12.97304688 13.5625 11.75 C13.66691406 10.96109375 13.77132813 10.1721875 13.87890625 9.359375 C14.13072064 6.69570949 14.13072064 6.69570949 13 3 C8.545 2.01 8.545 2.01 4 1 C4 1.66 4 2.32 4 3 C3.34 3 2.68 3 2 3 C0.58066487 7.25800538 0.27348323 11.22911538 2 15.4375 C2.33 15.953125 2.66 16.46875 3 17 C2.01 17 1.02 17 0 17 C-1.02835363 13.91493912 -1.13368434 11.7305728 -1.125 8.5 C-1.12757813 7.5409375 -1.13015625 6.581875 -1.1328125 5.59375 C-1 3 -1 3 0 0 Z " fill="#AF3132" transform="translate(334,249)"/>
<path d="M0 0 C3.65943647 0.68907122 7.22441959 1.56821266 10.8125 2.5625 C12.27623047 2.96662109 12.27623047 2.96662109 13.76953125 3.37890625 C14.87361328 3.68634766 14.87361328 3.68634766 16 4 C16 6.31 16 8.62 16 11 C12.04 11 8.08 11 4 11 C4 10.34 4 9.68 4 9 C3.34 9 2.68 9 2 9 C2 8.34 2 7.68 2 7 C1.34 6.67 0.68 6.34 0 6 C3.51705958 6.65271556 6.89325077 7.51393024 10.3125 8.5625 C11.19550781 8.83191406 12.07851563 9.10132813 12.98828125 9.37890625 C13.65214844 9.58386719 14.31601562 9.78882813 15 10 C15 8.68 15 7.36 15 6 C14.33613281 5.89042969 13.67226563 5.78085937 12.98828125 5.66796875 C3.97845006 4.05014505 3.97845006 4.05014505 0 1 C0 0.67 0 0.34 0 0 Z " fill="#A13032" transform="translate(389,258)"/>
<path d="M0 0 C0.66 0.33 1.32 0.66 2 1 C-2.7715298 6.13857055 -7.53710912 9.80933074 -14.65722656 10.11352539 C-15.64174805 10.10828857 -16.62626953 10.10305176 -17.640625 10.09765625 C-18.71054687 10.09443359 -19.78046875 10.09121094 -20.8828125 10.08789062 C-21.99398438 10.07951172 -23.10515625 10.07113281 -24.25 10.0625 C-25.93996094 10.05573242 -25.93996094 10.05573242 -27.6640625 10.04882812 C-30.44276217 10.03705397 -33.22135409 10.0206084 -36 10 C-35.67 8.68 -35.34 7.36 -35 6 C-35 6.99 -35 7.98 -35 9 C-31.79138226 8.86004486 -28.58318712 8.71197743 -25.375 8.5625 C-24.47136719 8.52318359 -23.56773437 8.48386719 -22.63671875 8.44335938 C-18.01783854 8.22421542 -13.54846364 7.8991149 -9 7 C-9 6.34 -9 5.68 -9 5 C-7.68 5 -6.36 5 -5 5 C-5 4.34 -5 3.68 -5 3 C-3.35 2.67 -1.7 2.34 0 2 C0 1.34 0 0.68 0 0 Z " fill="#A7302F" transform="translate(315,266)"/>
<path d="M0 0 C2 2 2 2 2 5 C3.32 5.33 4.64 5.66 6 6 C2.04 7.98 2.04 7.98 -2 10 C-4.62386487 6.93882432 -5 6.26826873 -5 2 C-3.35 1.34 -1.7 0.68 0 0 Z " fill="#E9EAEB" transform="translate(164,244)"/>
<path d="M0 0 C0.309375 0.639375 0.61875 1.27875 0.9375 1.9375 C1.8345163 3.93610821 1.8345163 3.93610821 3 5 C3.04063832 6.66617115 3.042721 8.33388095 3 10 C3.99 10.33 4.98 10.66 6 11 C4.68 11 3.36 11 2 11 C1.67 10.34 1.34 9.68 1 9 C0.01 9.33 -0.98 9.66 -2 10 C-2.33 9.01 -2.66 8.02 -3 7 C-2.67 6.34 -2.34 5.68 -2 5 C-4.97 4.67 -7.94 4.34 -11 4 C-10.67 3.34 -10.34 2.68 -10 2 C-8.72125 2.04125 -7.4425 2.0825 -6.125 2.125 C-3.98128508 2.24212873 -3.98128508 2.24212873 -2 2 C-1.34 1.34 -0.68 0.68 0 0 Z " fill="#BABBBE" transform="translate(177,265)"/>
<path d="M0 0 C-0.33 1.98 -0.66 3.96 -1 6 C-8.75 6.125 -8.75 6.125 -11 5 C-11 4.34 -11 3.68 -11 3 C-9.73581754 2.30034557 -8.46334598 1.61565237 -7.1875 0.9375 C-6.47980469 0.55464844 -5.77210938 0.17179687 -5.04296875 -0.22265625 C-3 -1 -3 -1 0 0 Z " fill="#F4F5F6" transform="translate(176,270)"/>
<path d="M0 0 C1.423125 0.495 1.423125 0.495 2.875 1 C9.43648197 2.87661046 16.37874634 2.39394814 23 1 C19.84496985 4.29844061 17.94815969 5.1779953 13.375 5.3125 C7.9476096 5.28883405 4.62785719 3.74243389 0 1 C0 0.67 0 0.34 0 0 Z " fill="#982B2E" transform="translate(329,272)"/>
<path d="M0 0 C1.125 3.75 1.125 3.75 0 6 C-0.57931956 11.6706472 -0.16820329 15.17882107 3 20 C2.6875 22.3125 2.6875 22.3125 2 24 C-2.07959653 18.99920426 -3.29768797 14.46975198 -3 8 C-2.26277986 5.10711083 -1.2625588 2.727127 0 0 Z " fill="#8A282F" transform="translate(326,248)"/>
<path d="M0 0 C1.46726798 3.81489674 0.43336419 6.29011622 -1 10 C-1.99 10 -2.98 10 -4 10 C-4.33 11.98 -4.66 13.96 -5 16 C-4.01 16.33 -3.02 16.66 -2 17 C-3.65 17 -5.3 17 -7 17 C-7.09765625 10.84765625 -7.09765625 10.84765625 -7 9 C-6 8 -6 8 -3.4375 7.9375 C-2.2309375 7.9684375 -2.2309375 7.9684375 -1 8 C-0.67 5.36 -0.34 2.72 0 0 Z " fill="#93989A" transform="translate(197,233)"/>
<path d="M0 0 C3.30212473 3.30212473 3.18367412 6.46603018 3.25 10.9375 C3.27578125 11.97777344 3.3015625 13.01804687 3.328125 14.08984375 C3 17 3 17 0 21 C0 14.07 0 7.14 0 0 Z " fill="#A03035" transform="translate(356,248)"/>
<path d="M0 0 C6.60769737 -0.60931636 10.94367779 -0.11218369 16.50390625 3.61328125 C18 5 18 5 19 8 C16.625 7.6875 16.625 7.6875 14 7 C13.34 6.01 12.68 5.02 12 4 C8.13718186 2.01340781 4.2844202 1.50404943 0 1 C0 0.67 0 0.34 0 0 Z " fill="#8C2527" transform="translate(337,240)"/>
<path d="M0 0 C4.61573147 2.4360805 8.09510355 5.2099026 9.75 10.3125 C9.87375 11.1478125 9.87375 11.1478125 10 12 C9.34 12 8.68 12 8 12 C8 11.34 8 10.68 8 10 C6.68 9.67 5.36 9.34 4 9 C4 7.35 4 5.7 4 4 C3.01 4 2.02 4 1 4 C0.67 2.68 0.34 1.36 0 0 Z " fill="#A92D32" transform="translate(309,231)"/>
<path d="M0 0 C2.31 0 4.62 0 7 0 C7 1.98 7 3.96 7 6 C6.67 6 6.34 6 6 6 C6 4.35 6 2.7 6 1 C5.01 1.495 5.01 1.495 4 2 C3.34444881 4.52733235 3.34444881 4.52733235 3 7 C2.34 7 1.68 7 1 7 C0.67 7.66 0.34 8.32 0 9 C-1.32 8.67 -2.64 8.34 -4 8 C-3.01 8 -2.02 8 -1 8 C-0.67 5.36 -0.34 2.72 0 0 Z " fill="#EE3032" transform="translate(367,235)"/>
<path d="M0 0 C7.625 0.875 7.625 0.875 11 2 C10.34 4.64 9.68 7.28 9 10 C7.35 10 5.7 10 4 10 C5.32 9.67 6.64 9.34 8 9 C7.43923199 6.50995496 7.43923199 6.50995496 6 4 C2.97017694 2.62810173 2.97017694 2.62810173 0 2 C0 1.34 0 0.68 0 0 Z " fill="#8D8E90" transform="translate(206,227)"/>
<path d="M0 0 C0.99 0.33 1.98 0.66 3 1 C2.67 2.32 2.34 3.64 2 5 C-2.455 5.495 -2.455 5.495 -7 6 C-7.33 4.68 -7.66 3.36 -8 2 C-5.69 2.33 -3.38 2.66 -1 3 C-0.67 2.01 -0.34 1.02 0 0 Z " fill="#F12D2D" transform="translate(407,268)"/>
<path d="M0 0 C0.66 0 1.32 0 2 0 C1.85764543 1.72945653 1.71095618 3.45855654 1.5625 5.1875 C1.48128906 6.15042969 1.40007812 7.11335937 1.31640625 8.10546875 C1.02333849 10.78649602 0.57296246 13.3662986 0 16 C-0.66 15.67 -1.32 15.34 -2 15 C-2.21755666 9.5610835 -2.10428384 5.12919186 0 0 Z " fill="#E93435" transform="translate(327,248)"/>
<path d="M0 0 C0.66 0.33 1.32 0.66 2 1 C2.99 1.33 3.98 1.66 5 2 C3.68 5.3 2.36 8.6 1 12 C0.34 11.67 -0.32 11.34 -1 11 C-1.02688151 9.35425434 -1.04634123 7.70838587 -1.0625 6.0625 C-1.07410156 5.14597656 -1.08570313 4.22945313 -1.09765625 3.28515625 C-1 1 -1 1 0 0 Z " fill="#CFCFD0" transform="translate(263,258)"/>
<path d="M0 0 C0.66 0.66 1.32 1.32 2 2 C-0.27045229 2.33591896 -2.54137633 2.66865065 -4.8125 3 C-6.70935547 3.2784375 -6.70935547 3.2784375 -8.64453125 3.5625 C-12 4 -12 4 -15 4 C-10.20963198 0.06944162 -6.20418951 -1.0671206 0 0 Z " fill="#9D2C2E" transform="translate(405,240)"/>
<path d="M0 0 C0.66 0.33 1.32 0.66 2 1 C1.08765983 3.28085043 0.41905836 4.70988267 -1.625 6.125 C-4.9000798 7.33160835 -7.77177622 7.18941155 -11.25 7.125 C-12.51328125 7.10695313 -13.7765625 7.08890625 -15.078125 7.0703125 C-16.04234375 7.04710937 -17.0065625 7.02390625 -18 7 C-18 6.67 -18 6.34 -18 6 C-16.78763672 5.92652344 -16.78763672 5.92652344 -15.55078125 5.8515625 C-14.48214844 5.77679688 -13.41351563 5.70203125 -12.3125 5.625 C-10.72888672 5.52058594 -10.72888672 5.52058594 -9.11328125 5.4140625 C-6.0440914 5.0058641 -3.73351947 4.44802653 -1 3 C-0.67 2.01 -0.34 1.02 0 0 Z " fill="#892222" transform="translate(307,260)"/>
<path d="M0 0 C0.66 0 1.32 0 2 0 C2 0.99 2 1.98 2 3 C3.11375 2.95875 4.2275 2.9175 5.375 2.875 C9 3 9 3 11 5 C5.06 5.495 5.06 5.495 -1 6 C-0.67 4.02 -0.34 2.04 0 0 Z " fill="#DF3838" transform="translate(396,244)"/>
<path d="M0 0 C0.53625 0.2475 1.0725 0.495 1.625 0.75 C0.02808746 2.58644942 -0.89889668 3.6424928 -3.3125 4.1875 C-6.14006306 4.95865356 -7.44416116 6.61228557 -9.375 8.75 C-9.25 6.5 -9.25 6.5 -8.375 3.75 C-3.49815271 -0.3682266 -3.49815271 -0.3682266 0 0 Z " fill="#B8BCBE" transform="translate(166.375,255.25)"/>
<path d="M0 0 C0.66 0 1.32 0 2 0 C5.4874006 4.29218536 5.51281877 7.70087268 5 13 C3.4765625 14.7421875 3.4765625 14.7421875 2 16 C2.08378906 15.39671875 2.16757812 14.7934375 2.25390625 14.171875 C2.40666016 12.97304688 2.40666016 12.97304688 2.5625 11.75 C2.66691406 10.96109375 2.77132813 10.1721875 2.87890625 9.359375 C3.00325728 6.93653563 2.91090329 5.24988135 2 3 C1.01 2.67 0.02 2.34 -1 2 C-0.67 1.34 -0.34 0.68 0 0 Z " fill="#992E2F" transform="translate(345,249)"/>
<path d="M0 0 C0.33 1.32 0.66 2.64 1 4 C-6.425 3.01 -6.425 3.01 -14 2 C-14 1.67 -14 1.34 -14 1 C-9.27616037 0.34843591 -4.78025483 -0.11950637 0 0 Z " fill="#C03333" transform="translate(308,229)"/>
<path d="M0 0 C0.99 0 1.98 0 3 0 C3 0.66 3 1.32 3 2 C2.34 2 1.68 2 1 2 C1.66 3.65 2.32 5.3 3 7 C1.02 7 -0.96 7 -3 7 C-2.38722388 4.03824877 -1.74627478 2.61941217 0 0 Z " fill="#B4393D" transform="translate(388,265)"/>
<path d="M0 0 C0.33 0 0.66 0 1 0 C1 1.98 1 3.96 1 6 C1.969375 6.12375 2.93875 6.2475 3.9375 6.375 C5.4534375 6.684375 5.4534375 6.684375 7 7 C7.33 7.66 7.66 8.32 8 9 C5.36 9 2.72 9 0 9 C0 6.03 0 3.06 0 0 Z " fill="#C43439" transform="translate(374,260)"/>
<path d="M0 0 C0.5625 1.9375 0.5625 1.9375 1 4 C0.67 4.33 0.34 4.66 0 5 C-0.07148199 6.35243917 -0.08399454 7.70834367 -0.0625 9.0625 C-0.041875 10.361875 -0.02125 11.66125 0 13 C-1.5625 11.375 -1.5625 11.375 -3 9 C-2.76261647 5.12273569 -2.17282078 3.25923117 0 0 Z " fill="#922B2D" transform="translate(389,245)"/>
<path d="M0 0 C2.89932357 2.39509338 3.50168276 4.31245243 4 8 C1.525 7.01 1.525 7.01 -1 6 C-0.67 4.02 -0.34 2.04 0 0 Z " fill="#F5F6F6" transform="translate(120,234)"/>
<path d="M0 0 C0.33 0.66 0.66 1.32 1 2 C-4.75 3.125 -4.75 3.125 -7 2 C-7 1.34 -7 0.68 -7 0 C-4.30234372 -1.34882814 -2.84835666 -0.80338265 0 0 Z " fill="#F92F2D" transform="translate(347,271)"/>
<path d="M0 0 C0.66 0.33 1.32 0.66 2 1 C2 3.64 2 6.28 2 9 C0.35 9.33 -1.3 9.66 -3 10 C-3 9.34 -3 8.68 -3 8 C-2.34 8 -1.68 8 -1 8 C-0.67 5.36 -0.34 2.72 0 0 Z " fill="#E33536" transform="translate(311,251)"/>
<path d="M0 0 C0.33 0 0.66 0 1 0 C1.33 2.97 1.66 5.94 2 9 C2.99 8.67 3.98 8.34 5 8 C5 9.32 5 10.64 5 12 C3.68 11.67 2.36 11.34 1 11 C-0.17571451 7.32589215 -0.07366746 3.83070817 0 0 Z " fill="#E3373C" transform="translate(367,262)"/>
<path d="M0 0 C3.55780196 0.60990891 6.6828589 1.5783681 10 3 C7 5 7 5 4 5 C4 4.34 4 3.68 4 3 C3.34 3 2.68 3 2 3 C2 2.34 2 1.68 2 1 C1.34 0.67 0.68 0.34 0 0 Z " fill="#91282A" transform="translate(389,264)"/>
<path d="M0 0 C4.61691161 0.52464905 6.09987886 1.07490914 10 4 C6.7 3.67 3.4 3.34 0 3 C0 2.01 0 1.02 0 0 Z " fill="#932A28" transform="translate(402,254)"/>
<path d="M0 0 C0.33 0.66 0.66 1.32 1 2 C1.66 2 2.32 2 3 2 C3.33 3.32 3.66 4.64 4 6 C3.01 6.66 2.02 7.32 1 8 C0.26919734 6.02253397 -0.39421747 4.01927511 -1 2 C-0.67 1.34 -0.34 0.68 0 0 Z " fill="#B2B5B8" transform="translate(124,233)"/>
<path d="M0 0 C3.465 1.485 3.465 1.485 7 3 C5.68 3.99 4.36 4.98 3 6 C0 2.25 0 2.25 0 0 Z " fill="#A5AFB8" transform="translate(159,248)"/>
<path d="M0 0 C0 0.66 0 1.32 0 2 C-4.75 4 -4.75 4 -7 4 C-7.33 4.66 -7.66 5.32 -8 6 C-8 5.01 -8 4.02 -8 3 C-5.11165997 0.89229241 -3.61537605 0 0 0 Z " fill="#B6B7BC" transform="translate(166,242)"/>
<path d="M0 0 C2.31 0 4.62 0 7 0 C6.67 0.66 6.34 1.32 6 2 C5.34 1.67 4.68 1.34 4 1 C4 1.66 4 2.32 4 3 C2.68 3.33 1.36 3.66 0 4 C0 2.68 0 1.36 0 0 Z " fill="#F7F9FA" transform="translate(220,234)"/>
<path d="M0 0 C-1.1446875 0.6496875 -1.1446875 0.6496875 -2.3125 1.3125 C-4.58093768 2.73686785 -6.2199723 4.03260097 -8 6 C-7.75 3.625 -7.75 3.625 -7 1 C-4.12732844 -1.10662581 -3.46720491 -1.15573497 0 0 Z " fill="#C9CCCE" transform="translate(206,229)"/>
<path d="M0 0 C2.5722047 1.28610235 3.00974907 2.33393981 4 5 C3.625 7.25 3.625 7.25 3 9 C0.70620251 5.55930376 0 4.27709699 0 0 Z " fill="#AD2D32" transform="translate(325,263)"/>
<path d="M0 0 C1.32 0.33 2.64 0.66 4 1 C4.33 2.32 4.66 3.64 5 5 C4.01 5.33 3.02 5.66 2 6 C0 3 0 3 0 0 Z " fill="#E0E2E2" transform="translate(142,246)"/>
<path d="M0 0 C4.875 1.75 4.875 1.75 6 4 C4.125 4.625 4.125 4.625 2 5 C1.34 4.34 0.68 3.68 0 3 C0 2.01 0 1.02 0 0 Z " fill="#BABBC0" transform="translate(179,242)"/>
<path d="M0 0 C5.75 -0.125 5.75 -0.125 8 1 C8 1.66 8 2.32 8 3 C5.6568787 2.74438677 3.32156597 2.40729228 1 2 C0.67 1.34 0.34 0.68 0 0 Z " fill="#C43439" transform="translate(404,242)"/>
<path d="M0 0 C1.32 0 2.64 0 4 0 C3.67 2.31 3.34 4.62 3 7 C1.35 7 -0.3 7 -2 7 C-0.68 6.67 0.64 6.34 2 6 C1.34 4.02 0.68 2.04 0 0 Z " fill="#ABAEB1" transform="translate(212,230)"/>
</svg>
